{
  "accessors": [
    {
      "name": "Mesh1 Bike1 Model_1_positions",
      "componentType": 5126,
      "count": 1116,
      "min": [
        -5.552410125732422,
        29.509899139404297,
        -12.258399963378906
      ],
      "max": [
        11.922499656677246,
        35.00979995727539,
        -7.69310998916626
      ],
      "type": "VEC3",
      "bufferView": 0,
      "byteOffset": 0
    },
    {
      "name": "Mesh1 Bike1 Model_1_normals",
      "componentType": 5126,
      "count": 1116,
      "min": [
        -1,
        -0.961260974407196,
        -0.9993910193443298
      ],
      "max": [
        1,
        0.961260974407196,
        0.9993910193443298
      ],
      "type": "VEC3",
      "bufferView": 0,
      "byteOffset": 195024
    },
    {
      "name": "Mesh1 Bike1 Model_1_texcoords",
      "componentType": 5126,
      "count": 1116,
      "min": [
        -21.722999572753906,
        -37.41809844970703
      ],
      "max": [
        21.84320068359375,
        8.63422966003418
      ],
      "type": "VEC2",
      "bufferView": 1,
      "byteOffset": 0
    },
    {
      "name": "Mesh1 Bike1 Model_1_0_indices",
      "componentType": 5123,
      "count": 168,
      "min": [
        0
      ],
      "max": [
        1072
      ],
      "type": "SCALAR",
      "bufferView": 2,
      "byteOffset": 0
    },
    {
      "name": "Mesh1 Bike1 Model_1_1_indices",
      "componentType": 5123,
      "count": 1560,
      "min": [
        4
      ],
      "max": [
        1115
      ],
      "type": "SCALAR",
      "bufferView": 2,
      "byteOffset": 336
    },
    {
      "name": "Mesh2 Bike1 Model_1_positions",
      "componentType": 5126,
      "count": 6260,
      "min": [
        0.42803698778152466,
        10.545999526977539,
        -42.52040100097656
      ],
      "max": [
        6.320409774780273,
        33.7578010559082,
        -3.509010076522827
      ],
      "type": "VEC3",
      "bufferView": 0,
      "byteOffset": 13392
    },
    {
      "name": "Mesh2 Bike1 Model_1_normals",
      "componentType": 5126,
      "count": 6260,
      "min": [
        -1,
        -1,
        -1
      ],
      "max": [
        1,
        1,
        1
      ],
      "type": "VEC3",
      "bufferView": 0,
      "byteOffset": 208416
    },
    {
      "name": "Mesh2 Bike1 Model_1_texcoords",
      "componentType": 5126,
      "count": 6260,
      "min": [
        -51.2864990234375,
        -49.252498626708984
      ],
      "max": [
        51.13819885253906,
        40.66400146484375
      ],
      "type": "VEC2",
      "bufferView": 1,
      "byteOffset": 8928
    },
    {
      "name": "Mesh2 Bike1 Model_1_0_indices",
      "componentType": 5123,
      "count": 5622,
      "min": [
        4
      ],
      "max": [
        6259
      ],
      "type": "SCALAR",
      "bufferView": 2,
      "byteOffset": 3456
    },
    {
      "name": "Mesh2 Bike1 Model_1_1_indices",
      "componentType": 5123,
      "count": 5622,
      "min": [
        0
      ],
      "max": [
        6251
      ],
      "type": "SCALAR",
      "bufferView": 2,
      "byteOffset": 14700
    },
    {
      "name": "Mesh3 Bike1 Model_1_positions",
      "componentType": 5126,
      "count": 48,
      "min": [
        0.9953320026397705,
        13.173500061035156,
        -42.437198638916016
      ],
      "max": [
        1.2132500410079956,
        15.653300285339355,
        -26.242300033569336
      ],
      "type": "VEC3",
      "bufferView": 0,
      "byteOffset": 88512
    },
    {
      "name": "Mesh3 Bike1 Model_1_normals",
      "componentType": 5126,
      "count": 48,
      "min": [
        -1,
        -0.9929109811782837,
        -0.9933609962463379
      ],
      "max": [
        1,
        0.9929109811782837,
        0.9933609962463379
      ],
      "type": "VEC3",
      "bufferView": 0,
      "byteOffset": 283536
    },
    {
      "name": "Mesh3 Bike1 Model_1_texcoords",
      "componentType": 5126,
      "count": 48,
      "min": [
        -50.47840118408203,
        -18.500600814819336
      ],
      "max": [
        50.47840118408203,
        49.5547981262207
      ],
      "type": "VEC2",
      "bufferView": 1,
      "byteOffset": 59008
    },
    {
      "name": "Mesh3 Bike1 Model_1_0_indices",
      "componentType": 5123,
      "count": 72,
      "min": [
        0
      ],
      "max": [
        47
      ],
      "type": "SCALAR",
      "bufferView": 2,
      "byteOffset": 25944
    },
    {
      "name": "Mesh4 Bike1 Model_1_positions",
      "componentType": 5126,
      "count": 48,
      "min": [
        0.9953320026397705,
        8.93574047088623,
        -42.47549819946289
      ],
      "max": [
        1.2132500410079956,
        10.69279956817627,
        -26.27829933166504
      ],
      "type": "VEC3",
      "bufferView": 0,
      "byteOffset": 89088
    },
    {
      "name": "Mesh4 Bike1 Model_1_normals",
      "componentType": 5126,
      "count": 48,
      "min": [
        -1,
        -0.9971619844436646,
        -0.9999780058860779
      ],
      "max": [
        1,
        0.9971619844436646,
        0.9999780058860779
      ],
      "type": "VEC3",
      "bufferView": 0,
      "byteOffset": 284112
    },
    {
      "name": "Mesh4 Bike1 Model_1_texcoords",
      "componentType": 5126,
      "count": 48,
      "min": [
        -50.5166015625,
        -50.17829895019531
      ],
      "max": [
        50.5166015625,
        -7.707859992980957
      ],
      "type": "VEC2",
      "bufferView": 1,
      "byteOffset": 59392
    },
    {
      "name": "Mesh4 Bike1 Model_1_0_indices",
      "componentType": 5123,
      "count": 72,
      "min": [
        0
      ],
      "max": [
        47
      ],
      "type": "SCALAR",
      "bufferView": 2,
      "byteOffset": 26088
    },
    {
      "name": "Mesh5 Bike1 Model_1_positions",
      "componentType": 5126,
      "count": 736,
      "min": [
        -5.137129783630371,
        7.6933698654174805,
        -32.05860137939453
      ],
      "max": [
        11.507200241088867,
        16.246000289916992,
        -19.3705997467041
      ],
      "type": "VEC3",
      "bufferView": 0,
      "byteOffset": 89664
    },
    {
      "name": "Mesh5 Bike1 Model_1_normals",
      "componentType": 5126,
      "count": 736,
      "min": [
        -1,
        -0.9961950182914734,
        -0.9961950182914734
      ],
      "max": [
        1,
        0.9961950182914734,
        0.9961950182914734
      ],
      "type": "VEC3",
      "bufferView": 0,
      "byteOffset": 284688
    },
    {
      "name": "Mesh5 Bike1 Model_1_texcoords",
      "componentType": 5126,
      "count": 736,
      "min": [
        -40.09980010986328,
        -39.94060134887695
      ],
      "max": [
        40.09980010986328,
        37.749298095703125
      ],
      "type": "VEC2",
      "bufferView": 1,
      "byteOffset": 59776
    },
    {
      "name": "Mesh5 Bike1 Model_1_0_indices",
      "componentType": 5123,
      "count": 1272,
      "min": [
        0
      ],
      "max": [
        735
      ],
      "type": "SCALAR",
      "bufferView": 2,
      "byteOffset": 26232
    },
    {
      "name": "Mesh5 Bike1 Model_1_1_indices",
      "componentType": 5123,
      "count": 96,
      "min": [
        188
      ],
      "max": [
        692
      ],
      "type": "SCALAR",
      "bufferView": 2,
      "byteOffset": 28776
    },
    {
      "name": "Mesh6 Bike1 Model_1_positions",
      "componentType": 5126,
      "count": 2648,
      "min": [
        1.6717699766159058,
        0.0000061636501413886435,
        -53.761600494384766
      ],
      "max": [
        4.698349952697754,
        23.970500946044922,
        -29.791099548339844
      ],
      "type": "VEC3",
      "bufferView": 0,
      "byteOffset": 98496
    },
    {
      "name": "Mesh6 Bike1 Model_1_normals",
      "componentType": 5126,
      "count": 2648,
      "min": [
        -1,
        -1,
        -1
      ],
      "max": [
        1,
        1,
        1
      ],
      "type": "VEC3",
      "bufferView": 0,
      "byteOffset": 293520
    },
    {
      "name": "Mesh6 Bike1 Model_1_texcoords",
      "componentType": 5126,
      "count": 2648,
      "min": [
        -59.861900329589844,
        -59.22909927368164
      ],
      "max": [
        59.861900329589844,
        50.61759948730469
      ],
      "type": "VEC2",
      "bufferView": 1,
      "byteOffset": 65664
    },
    {
      "name": "Mesh6 Bike1 Model_1_0_indices",
      "componentType": 5123,
      "count": 5580,
      "min": [
        0
      ],
      "max": [
        2647
      ],
      "type": "SCALAR",
      "bufferView": 2,
      "byteOffset": 28968
    },
    {
      "name": "Mesh6 Bike1 Model_1_1_indices",
      "componentType": 5123,
      "count": 120,
      "min": [
        437
      ],
      "max": [
        2100
      ],
      "type": "SCALAR",
      "bufferView": 2,
      "byteOffset": 40128
    },
    {
      "name": "Mesh7 Bike1 Model_1_positions",
      "componentType": 5126,
      "count": 2648,
      "min": [
        1.6717699766159058,
        0,
        -15.929300308227539
      ],
      "max": [
        4.698349952697754,
        23.970500946044922,
        8.041170120239258
      ],
      "type": "VEC3",
      "bufferView": 0,
      "byteOffset": 130272
    },
    {
      "name": "Mesh7 Bike1 Model_1_normals",
      "componentType": 5126,
      "count": 2648,
      "min": [
        -1,
        -1,
        -1
      ],
      "max": [
        1,
        1,
        1
      ],
      "type": "VEC3",
      "bufferView": 0,
      "byteOffset": 325296
    },
    {
      "name": "Mesh7 Bike1 Model_1_texcoords",
      "componentType": 5126,
      "count": 2648,
      "min": [
        -24.957799911499023,
        -25.32229995727539
      ],
      "max": [
        24.70330047607422,
        16.572599411010742
      ],
      "type": "VEC2",
      "bufferView": 1,
      "byteOffset": 86848
    },
    {
      "name": "Mesh7 Bike1 Model_1_0_indices",
      "componentType": 5123,
      "count": 5580,
      "min": [
        0
      ],
      "max": [
        2647
      ],
      "type": "SCALAR",
      "bufferView": 2,
      "byteOffset": 40368
    },
    {
      "name": "Mesh7 Bike1 Model_1_1_indices",
      "componentType": 5123,
      "count": 120,
      "min": [
        238
      ],
      "max": [
        2063
      ],
      "type": "SCALAR",
      "bufferView": 2,
      "byteOffset": 51528
    },
    {
      "name": "Mesh8 Bike1 Model_1_positions",
      "componentType": 5126,
      "count": 1068,
      "min": [
        1.068120002746582,
        31.401500701904297,
        -35.91230010986328
      ],
      "max": [
        5.302000045776367,
        37.143699645996094,
        -28.156700134277344
      ],
      "type": "VEC3",
      "bufferView": 0,
      "byteOffset": 162048
    },
    {
      "name": "Mesh8 Bike1 Model_1_normals",
      "componentType": 5126,
      "count": 1068,
      "min": [
        -1,
        -1,
        -1
      ],
      "max": [
        1,
        1,
        1
      ],
      "type": "VEC3",
      "bufferView": 0,
      "byteOffset": 357072
    },
    {
      "name": "Mesh8 Bike1 Model_1_texcoords",
      "componentType": 5126,
      "count": 1068,
      "min": [
        -44.3474006652832,
        -45.584800720214844
      ],
      "max": [
        44.72610092163086,
        39.65230178833008
      ],
      "type": "VEC2",
      "bufferView": 1,
      "byteOffset": 108032
    },
    {
      "name": "Mesh8 Bike1 Model_1_0_indices",
      "componentType": 5123,
      "count": 1812,
      "min": [
        0
      ],
      "max": [
        1067
      ],
      "type": "SCALAR",
      "bufferView": 2,
      "byteOffset": 51768
    },
    {
      "name": "Mesh8 Bike1 Model_1_1_indices",
      "componentType": 5123,
      "count": 132,
      "min": [
        533
      ],
      "max": [
        864
      ],
      "type": "SCALAR",
      "bufferView": 2,
      "byteOffset": 55392
    },
    {
      "name": "Mesh9 Bike1 Model_1_positions",
      "componentType": 5126,
      "count": 240,
      "min": [
        0.9724509716033936,
        10.243800163269043,
        -43.607398986816406
      ],
      "max": [
        1.2361299991607666,
        13.726699829101562,
        -39.9452018737793
      ],
      "type": "VEC3",
      "bufferView": 0,
      "byteOffset": 174864
    },
    {
      "name": "Mesh9 Bike1 Model_1_normals",
      "componentType": 5126,
      "count": 240,
      "min": [
        -1,
        -0.986624002456665,
        -0.9887089729309082
      ],
      "max": [
        1,
        0.986624002456665,
        0.9887089729309082
      ],
      "type": "VEC3",
      "bufferView": 0,
      "byteOffset": 369888
    },
    {
      "name": "Mesh9 Bike1 Model_1_texcoords",
      "componentType": 5126,
      "count": 240,
      "min": [
        -51.64860153198242,
        -50.946998596191406
      ],
      "max": [
        51.64860153198242,
        49.03960037231445
      ],
      "type": "VEC2",
      "bufferView": 1,
      "byteOffset": 116576
    },
    {
      "name": "Mesh9 Bike1 Model_1_0_indices",
      "componentType": 5123,
      "count": 456,
      "min": [
        0
      ],
      "max": [
        239
      ],
      "type": "SCALAR",
      "bufferView": 2,
      "byteOffset": 55656
    },
    {
      "name": "Mesh10 Bike1 Model_1_positions",
      "componentType": 5126,
      "count": 1440,
      "min": [
        0.7637990117073059,
        8.955400466918945,
        -29.102500915527344
      ],
      "max": [
        1.4447799921035767,
        15.661800384521484,
        -22.292699813842773
      ],
      "type": "VEC3",
      "bufferView": 0,
      "byteOffset": 177744
    },
    {
      "name": "Mesh10 Bike1 Model_1_normals",
      "componentType": 5126,
      "count": 1440,
      "min": [
        -1,
        -1,
        -1
      ],
      "max": [
        1,
        1,
        1
      ],
      "type": "VEC3",
      "bufferView": 0,
      "byteOffset": 372768
    },
    {
      "name": "Mesh10 Bike1 Model_1_texcoords",
      "componentType": 5126,
      "count": 1440,
      "min": [
        -37.143699645996094,
        -37.53419876098633
      ],
      "max": [
        37.143699645996094,
        32.068599700927734
      ],
      "type": "VEC2",
      "bufferView": 1,
      "byteOffset": 118496
    },
    {
      "name": "Mesh10 Bike1 Model_1_0_indices",
      "componentType": 5123,
      "count": 2952,
      "min": [
        0
      ],
      "max": [
        1439
      ],
      "type": "SCALAR",
      "bufferView": 2,
      "byteOffset": 56568
    }
  ],
  "asset": {
    "generator": "obj2gltf",
    "version": "2.0"
  },
  "buffers": [
    {
      "name": "Bike",
      "byteLength": 582536,
      "uri": "data:application/octet-stream;base64,"
    }
  ],
  "bufferViews": [
    {
      "name": "bufferView_0",
      "buffer": 0,
      "byteLength": 390048,
      "byteOffset": 0,
      "byteStride": 12,
      "target": 34962
    },
    {
      "name": "bufferView_1",
      "buffer": 0,
      "byteLength": 130016,
      "byteOffset": 390048,
      "byteStride": 8,
      "target": 34962
    },
    {
      "name": "bufferView_2",
      "buffer": 0,
      "byteLength": 62472,
      "byteOffset": 520064,
      "target": 34963
    }
  ],
  "materials": [
    {
      "name": "Stacy_Hair",
      "pbrMetallicRoughness": {
        "baseColorFactor": [
          0.141176,
          0.07451,
          0.027451,
          1
        ],
        "metallicFactor": 0,
        "roughnessFactor": 1
      },
      "emissiveFactor": [
        0,
        0,
        0
      ],
      "alphaMode": "OPAQUE",
      "doubleSided": false
    },
    {
      "name": "Stacy_Shirt",
      "pbrMetallicRoughness": {
        "baseColorFactor": [
          0.4,
          0.4,
          0.4,
          1
        ],
        "metallicFactor": 0,
        "roughnessFactor": 1
      },
      "emissiveFactor": [
        0,
        0,
        0
      ],
      "alphaMode": "OPAQUE",
      "doubleSided": false
    },
    {
      "name": "Stacy_Shoe",
      "pbrMetallicRoughness": {
        "baseColorFactor": [
          0.901961,
          0.168627,
          0.172549,
          1
        ],
        "metallicFactor": 0,
        "roughnessFactor": 1
      },
      "emissiveFactor": [
        0,
        0,
        0
      ],
      "alphaMode": "OPAQUE",
      "doubleSided": false
    },
    {
      "name": "Stacy_Shoe_Laces_Sole",
      "pbrMetallicRoughness": {
        "baseColorFactor": [
          0.886275,
          0.886275,
          0.886275,
          1
        ],
        "metallicFactor": 0,
        "roughnessFactor": 1
      },
      "emissiveFactor": [
        0,
        0,
        0
      ],
      "alphaMode": "OPAQUE",
      "doubleSided": false
    }
  ],
  "meshes": [
    {
      "name": "Mesh1 Bike1 Model_1",
      "primitives": [
        {
          "attributes": {
            "POSITION": 0,
            "NORMAL": 1,
            "TEXCOORD_0": 2
          },
          "indices": 3,
          "material": 0,
          "mode": 4
        },
        {
          "attributes": {
            "POSITION": 0,
            "NORMAL": 1,
            "TEXCOORD_0": 2
          },
          "indices": 4,
          "material": 1,
          "mode": 4
        }
      ]
    },
    {
      "name": "Mesh2 Bike1 Model_1",
      "primitives": [
        {
          "attributes": {
            "POSITION": 5,
            "NORMAL": 6,
            "TEXCOORD_0": 7
          },
          "indices": 8,
          "material": 1,
          "mode": 4
        },
        {
          "attributes": {
            "POSITION": 5,
            "NORMAL": 6,
            "TEXCOORD_0": 7
          },
          "indices": 9,
          "material": 2,
          "mode": 4
        }
      ]
    },
    {
      "name": "Mesh3 Bike1 Model_1",
      "primitives": [
        {
          "attributes": {
            "POSITION": 10,
            "NORMAL": 11,
            "TEXCOORD_0": 12
          },
          "indices": 13,
          "material": 1,
          "mode": 4
        }
      ]
    },
    {
      "name": "Mesh4 Bike1 Model_1",
      "primitives": [
        {
          "attributes": {
            "POSITION": 14,
            "NORMAL": 15,
            "TEXCOORD_0": 16
          },
          "indices": 17,
          "material": 1,
          "mode": 4
        }
      ]
    },
    {
      "name": "Mesh5 Bike1 Model_1",
      "primitives": [
        {
          "attributes": {
            "POSITION": 18,
            "NORMAL": 19,
            "TEXCOORD_0": 20
          },
          "indices": 21,
          "material": 1,
          "mode": 4
        },
        {
          "attributes": {
            "POSITION": 18,
            "NORMAL": 19,
            "TEXCOORD_0": 20
          },
          "indices": 22,
          "material": 0,
          "mode": 4
        }
      ]
    },
    {
      "name": "Mesh6 Bike1 Model_1",
      "primitives": [
        {
          "attributes": {
            "POSITION": 23,
            "NORMAL": 24,
            "TEXCOORD_0": 25
          },
          "indices": 26,
          "material": 1,
          "mode": 4
        },
        {
          "attributes": {
            "POSITION": 23,
            "NORMAL": 24,
            "TEXCOORD_0": 25
          },
          "indices": 27,
          "material": 3,
          "mode": 4
        }
      ]
    },
    {
      "name": "Mesh7 Bike1 Model_1",
      "primitives": [
        {
          "attributes": {
            "POSITION": 28,
            "NORMAL": 29,
            "TEXCOORD_0": 30
          },
          "indices": 31,
          "material": 1,
          "mode": 4
        },
        {
          "attributes": {
            "POSITION": 28,
            "NORMAL": 29,
            "TEXCOORD_0": 30
          },
          "indices": 32,
          "material": 3,
          "mode": 4
        }
      ]
    },
    {
      "name": "Mesh8 Bike1 Model_1",
      "primitives": [
        {
          "attributes": {
            "POSITION": 33,
            "NORMAL": 34,
            "TEXCOORD_0": 35
          },
          "indices": 36,
          "material": 1,
          "mode": 4
        },
        {
          "attributes": {
            "POSITION": 33,
            "NORMAL": 34,
            "TEXCOORD_0": 35
          },
          "indices": 37,
          "material": 0,
          "mode": 4
        }
      ]
    },
    {
      "name": "Mesh9 Bike1 Model_1",
      "primitives": [
        {
          "attributes": {
            "POSITION": 38,
            "NORMAL": 39,
            "TEXCOORD_0": 40
          },
          "indices": 41,
          "material": 1,
          "mode": 4
        }
      ]
    },
    {
      "name": "Mesh10 Bike1 Model_1",
      "primitives": [
        {
          "attributes": {
            "POSITION": 42,
            "NORMAL": 43,
            "TEXCOORD_0": 44
          },
          "indices": 45,
          "material": 1,
          "mode": 4
        }
      ]
    }
  ],
  "nodes": [
    {
      "name": "Mesh1 Bike1 Model",
      "mesh": 0
    },
    {
      "name": "Mesh2 Bike1 Model",
      "mesh": 1
    },
    {
      "name": "Mesh3 Bike1 Model",
      "mesh": 2
    },
    {
      "name": "Mesh4 Bike1 Model",
      "mesh": 3
    },
    {
      "name": "Mesh5 Bike1 Model",
      "mesh": 4
    },
    {
      "name": "Mesh6 Bike1 Model",
      "mesh": 5
    },
    {
      "name": "Mesh7 Bike1 Model",
      "mesh": 6
    },
    {
      "name": "Mesh8 Bike1 Model",
      "mesh": 7
    },
    {
      "name": "Mesh9 Bike1 Model",
      "mesh": 8
    },
    {
      "name": "Mesh10 Bike1 Model",
      "mesh": 9
    }
  ],
  "scene": 0,
  "scenes": [
    {
      "nodes": [
        0,
        1,
        2,
        3,
        4,
        5,
        6,
        7,
        8,
        9
      ]
    }
  ]
}
