{
  "accessors": [
    {
      "name": "Mesh1 Group1 BM1 Model_1_positions",
      "componentType": 5126,
      "count": 48,
      "min": [
        -428.50799560546875,
        458.8190002441406,
        224.20399475097656
      ],
      "max": [
        1036.02001953125,
        516.31201171875,
        1392.97998046875
      ],
      "type": "VEC3",
      "bufferView": 0,
      "byteOffset": 0
    },
    {
      "name": "Mesh1 Group1 BM1 Model_1_normals",
      "componentType": 5126,
      "count": 48,
      "min": [
        -0.9943379759788513,
        -1,
        -0.9943379759788513
      ],
      "max": [
        0.9943379759788513,
        1,
        0.9943379759788513
      ],
      "type": "VEC3",
      "bufferView": 0,
      "byteOffset": 67392
    },
    {
      "name": "Mesh1 Group1 BM1 Model_1_texcoords",
      "componentType": 5126,
      "count": 48,
      "min": [
        -10571.5,
        -10570.5
      ],
      "max": [
        10571.5,
        1
      ],
      "type": "VEC2",
      "bufferView": 1,
      "byteOffset": 0
    },
    {
      "name": "Mesh1 Group1 BM1 Model_1_0_indices",
      "componentType": 5123,
      "count": 36,
      "min": [
        0
      ],
      "max": [
        41
      ],
      "type": "SCALAR",
      "bufferView": 2,
      "byteOffset": 0
    },
    {
      "name": "Mesh1 Group1 BM1 Model_1_1_indices",
      "componentType": 5123,
      "count": 36,
      "min": [
        4
      ],
      "max": [
        47
      ],
      "type": "SCALAR",
      "bufferView": 2,
      "byteOffset": 72
    },
    {
      "name": "Mesh3 barn1 BM1 Model_1_positions",
      "componentType": 5126,
      "count": 5568,
      "min": [
        -1418.699951171875,
        0,
        -1789.449951171875
      ],
      "max": [
        1244.5699462890625,
        1157.7099609375,
        1308.27001953125
      ],
      "type": "VEC3",
      "bufferView": 0,
      "byteOffset": 576
    },
    {
      "name": "Mesh3 barn1 BM1 Model_1_normals",
      "componentType": 5126,
      "count": 5568,
      "min": [
        -0.9943379759788513,
        -1,
        -0.9943379759788513
      ],
      "max": [
        0.9943379759788513,
        1,
        0.9943379759788513
      ],
      "type": "VEC3",
      "bufferView": 0,
      "byteOffset": 67968
    },
    {
      "name": "Mesh3 barn1 BM1 Model_1_texcoords",
      "componentType": 5126,
      "count": 5568,
      "min": [
        -175.03199768066406,
        -166.46299743652344
      ],
      "max": [
        175.03199768066406,
        142.5449981689453
      ],
      "type": "VEC2",
      "bufferView": 1,
      "byteOffset": 384
    },
    {
      "name": "Mesh3 barn1 BM1 Model_1_0_indices",
      "componentType": 5123,
      "count": 3,
      "min": [
        4558
      ],
      "max": [
        4560
      ],
      "type": "SCALAR",
      "bufferView": 2,
      "byteOffset": 144
    },
    {
      "name": "Mesh3 barn1 BM1 Model_1_1_indices",
      "componentType": 5123,
      "count": 1446,
      "min": [
        0
      ],
      "max": [
        5510
      ],
      "type": "SCALAR",
      "bufferView": 2,
      "byteOffset": 152
    },
    {
      "name": "Mesh3 barn1 BM1 Model_1_2_indices",
      "componentType": 5123,
      "count": 8091,
      "min": [
        4
      ],
      "max": [
        5567
      ],
      "type": "SCALAR",
      "bufferView": 2,
      "byteOffset": 3044
    },
    {
      "name": "Mesh3 barn1 BM1 Model_1_3_indices",
      "componentType": 5123,
      "count": 4677,
      "min": [
        0
      ],
      "max": [
        5515
      ],
      "type": "SCALAR",
      "bufferView": 2,
      "byteOffset": 19228
    },
    {
      "name": "Mesh3 barn1 BM1 Model_1_4_indices",
      "componentType": 5123,
      "count": 1887,
      "min": [
        31
      ],
      "max": [
        5557
      ],
      "type": "SCALAR",
      "bufferView": 2,
      "byteOffset": 28584
    },
    {
      "name": "Mesh3 barn1 BM1 Model_1_5_indices",
      "componentType": 5123,
      "count": 87,
      "min": [
        165
      ],
      "max": [
        4551
      ],
      "type": "SCALAR",
      "bufferView": 2,
      "byteOffset": 32360
    },
    {
      "name": "Mesh3 barn1 BM1 Model_1_6_indices",
      "componentType": 5123,
      "count": 66,
      "min": [
        2695
      ],
      "max": [
        2742
      ],
      "type": "SCALAR",
      "bufferView": 2,
      "byteOffset": 32536
    },
    {
      "name": "Mesh3 barn1 BM1 Model_1_7_indices",
      "componentType": 5123,
      "count": 12,
      "min": [
        2708
      ],
      "max": [
        5187
      ],
      "type": "SCALAR",
      "bufferView": 2,
      "byteOffset": 32668
    },
    {
      "name": "Mesh3 barn1 BM1 Model_1_8_indices",
      "componentType": 5123,
      "count": 3,
      "min": [
        2932
      ],
      "max": [
        2934
      ],
      "type": "SCALAR",
      "bufferView": 2,
      "byteOffset": 32692
    }
  ],
  "asset": {
    "generator": "obj2gltf",
    "version": "2.0"
  },
  "buffers": [
    {
      "name": "Barn_Positioned",
      "byteLength": 212412,
      "uri": "data:application/octet-stream;base64,"
    }
  ],
  "bufferViews": [
    {
      "name": "bufferView_0",
      "buffer": 0,
      "byteLength": 134784,
      "byteOffset": 0,
      "byteStride": 12,
      "target": 34962
    },
    {
      "name": "bufferView_1",
      "buffer": 0,
      "byteLength": 44928,
      "byteOffset": 134784,
      "byteStride": 8,
      "target": 34962
    },
    {
      "name": "bufferView_2",
      "buffer": 0,
      "byteLength": 32700,
      "byteOffset": 179712,
      "target": 34963
    }
  ],
  "materials": [
    {
      "name": "Color_M03",
      "pbrMetallicRoughness": {
        "baseColorFactor": [
          0.666667,
          0.666667,
          0.666667,
          1
        ],
        "metallicFactor": 0,
        "roughnessFactor": 1
      },
      "emissiveFactor": [
        0,
        0,
        0
      ],
      "alphaMode": "OPAQUE",
      "doubleSided": false
    },
    {
      "name": "BackColor",
      "pbrMetallicRoughness": {
        "baseColorFactor": [
          0.643137,
          0.698039,
          0.733333,
          1
        ],
        "metallicFactor": 0,
        "roughnessFactor": 1
      },
      "emissiveFactor": [
        0,
        0,
        0
      ],
      "alphaMode": "OPAQUE",
      "doubleSided": false
    },
    {
      "name": "_2",
      "pbrMetallicRoughness": {
        "baseColorFactor": [
          0.117647,
          0.117647,
          0.117647,
          1
        ],
        "metallicFactor": 0,
        "roughnessFactor": 1
      },
      "emissiveFactor": [
        0,
        0,
        0
      ],
      "alphaMode": "OPAQUE",
      "doubleSided": false
    },
    {
      "name": "_3",
      "pbrMetallicRoughness": {
        "baseColorFactor": [
          0.337255,
          0.337255,
          0.337255,
          1
        ],
        "metallicFactor": 0,
        "roughnessFactor": 1
      },
      "emissiveFactor": [
        0,
        0,
        0
      ],
      "alphaMode": "OPAQUE",
      "doubleSided": false
    },
    {
      "name": "_7",
      "pbrMetallicRoughness": {
        "baseColorFactor": [
          1,
          1,
          1,
          1
        ],
        "metallicFactor": 0,
        "roughnessFactor": 1
      },
      "emissiveFactor": [
        0,
        0,
        0
      ],
      "alphaMode": "OPAQUE",
      "doubleSided": false
    },
    {
      "name": "_",
      "pbrMetallicRoughness": {
        "baseColorFactor": [
          1,
          0.898039,
          0.6,
          1
        ],
        "metallicFactor": 0,
        "roughnessFactor": 1
      },
      "emissiveFactor": [
        0,
        0,
        0
      ],
      "alphaMode": "OPAQUE",
      "doubleSided": false
    },
    {
      "name": "_8",
      "pbrMetallicRoughness": {
        "baseColorFactor": [
          0.227451,
          0.227451,
          0.227451,
          1
        ],
        "metallicFactor": 0,
        "roughnessFactor": 1
      },
      "emissiveFactor": [
        0,
        0,
        0
      ],
      "alphaMode": "OPAQUE",
      "doubleSided": false
    },
    {
      "name": "_9",
      "pbrMetallicRoughness": {
        "baseColorFactor": [
          0.4,
          0.2,
          0,
          1
        ],
        "metallicFactor": 0,
        "roughnessFactor": 1
      },
      "emissiveFactor": [
        0,
        0,
        0
      ],
      "alphaMode": "OPAQUE",
      "doubleSided": false
    },
    {
      "name": "_6",
      "pbrMetallicRoughness": {
        "baseColorFactor": [
          0.6,
          0.298039,
          0,
          1
        ],
        "metallicFactor": 0,
        "roughnessFactor": 1
      },
      "emissiveFactor": [
        0,
        0,
        0
      ],
      "alphaMode": "OPAQUE",
      "doubleSided": false
    },
    {
      "name": "FrontColor",
      "pbrMetallicRoughness": {
        "baseColorFactor": [
          1,
          1,
          1,
          1
        ],
        "metallicFactor": 0,
        "roughnessFactor": 1
      },
      "emissiveFactor": [
        0,
        0,
        0
      ],
      "alphaMode": "OPAQUE",
      "doubleSided": false
    }
  ],
  "meshes": [
    {
      "name": "Mesh1 Group1 BM1 Model_1",
      "primitives": [
        {
          "attributes": {
            "POSITION": 0,
            "NORMAL": 1,
            "TEXCOORD_0": 2
          },
          "indices": 3,
          "material": 0,
          "mode": 4
        },
        {
          "attributes": {
            "POSITION": 0,
            "NORMAL": 1,
            "TEXCOORD_0": 2
          },
          "indices": 4,
          "material": 1,
          "mode": 4
        }
      ]
    },
    {
      "name": "Mesh3 barn1 BM1 Model_1",
      "primitives": [
        {
          "attributes": {
            "POSITION": 5,
            "NORMAL": 6,
            "TEXCOORD_0": 7
          },
          "indices": 8,
          "material": 1,
          "mode": 4
        },
        {
          "attributes": {
            "POSITION": 5,
            "NORMAL": 6,
            "TEXCOORD_0": 7
          },
          "indices": 9,
          "material": 2,
          "mode": 4
        },
        {
          "attributes": {
            "POSITION": 5,
            "NORMAL": 6,
            "TEXCOORD_0": 7
          },
          "indices": 10,
          "material": 3,
          "mode": 4
        },
        {
          "attributes": {
            "POSITION": 5,
            "NORMAL": 6,
            "TEXCOORD_0": 7
          },
          "indices": 11,
          "material": 4,
          "mode": 4
        },
        {
          "attributes": {
            "POSITION": 5,
            "NORMAL": 6,
            "TEXCOORD_0": 7
          },
          "indices": 12,
          "material": 5,
          "mode": 4
        },
        {
          "attributes": {
            "POSITION": 5,
            "NORMAL": 6,
            "TEXCOORD_0": 7
          },
          "indices": 13,
          "material": 6,
          "mode": 4
        },
        {
          "attributes": {
            "POSITION": 5,
            "NORMAL": 6,
            "TEXCOORD_0": 7
          },
          "indices": 14,
          "material": 7,
          "mode": 4
        },
        {
          "attributes": {
            "POSITION": 5,
            "NORMAL": 6,
            "TEXCOORD_0": 7
          },
          "indices": 15,
          "material": 8,
          "mode": 4
        },
        {
          "attributes": {
            "POSITION": 5,
            "NORMAL": 6,
            "TEXCOORD_0": 7
          },
          "indices": 16,
          "material": 9,
          "mode": 4
        }
      ]
    }
  ],
  "nodes": [
    {
      "name": "Mesh1 Group1 BM1 Model",
      "mesh": 0
    },
    {
      "name": "Mesh3 barn1 BM1 Model",
      "mesh": 1
    }
  ],
  "scene": 0,
  "scenes": [
    {
      "nodes": [
        0,
        1
      ]
    }
  ]
}
