{
  "accessors": [
    {
      "name": "Mesh1 Group1 SnowShoes1 Model_1_positions",
      "componentType": 5126,
      "count": 1164,
      "min": [
        -18.598499298095703,
        0,
        -41.93980026245117
      ],
      "max": [
        4.083089828491211,
        1,
        -3.2496700286865234
      ],
      "type": "VEC3",
      "bufferView": 0,
      "byteOffset": 0
    },
    {
      "name": "Mesh1 Group1 SnowShoes1 Model_1_normals",
      "componentType": 5126,
      "count": 1164,
      "min": [
        -0.9998070001602173,
        -1,
        -0.9951019883155823
      ],
      "max": [
        0.9998070001602173,
        1,
        0.9951019883155823
      ],
      "type": "VEC3",
      "bufferView": 0,
      "byteOffset": 83292
    },
    {
      "name": "Mesh1 Group1 SnowShoes1 Model_1_texcoords",
      "componentType": 5126,
      "count": 1164,
      "min": [
        -40.099098205566406,
        -19.399599075317383
      ],
      "max": [
        40.099098205566406,
        1
      ],
      "type": "VEC2",
      "bufferView": 1,
      "byteOffset": 0
    },
    {
      "name": "Mesh1 Group1 SnowShoes1 Model_1_0_indices",
      "componentType": 5123,
      "count": 2364,
      "min": [
        0
      ],
      "max": [
        1163
      ],
      "type": "SCALAR",
      "bufferView": 2,
      "byteOffset": 0
    },
    {
      "name": "Mesh6 Group2 SnowShoes1 Model_1_positions",
      "componentType": 5126,
      "count": 1170,
      "min": [
        -15.192899703979492,
        0.75,
        3.017240047454834
      ],
      "max": [
        24.906200408935547,
        1.75,
        23.416799545288086
      ],
      "type": "VEC3",
      "bufferView": 0,
      "byteOffset": 13968
    },
    {
      "name": "Mesh6 Group2 SnowShoes1 Model_1_normals",
      "componentType": 5126,
      "count": 1170,
      "min": [
        -1,
        -1,
        -0.9994919896125793
      ],
      "max": [
        1,
        1,
        0.9994919896125793
      ],
      "type": "VEC3",
      "bufferView": 0,
      "byteOffset": 97260
    },
    {
      "name": "Mesh6 Group2 SnowShoes1 Model_1_texcoords",
      "componentType": 5126,
      "count": 1170,
      "min": [
        -40.099098205566406,
        -19.399599075317383
      ],
      "max": [
        40.099098205566406,
        1
      ],
      "type": "VEC2",
      "bufferView": 1,
      "byteOffset": 9312
    },
    {
      "name": "Mesh6 Group2 SnowShoes1 Model_1_0_indices",
      "componentType": 5123,
      "count": 2364,
      "min": [
        0
      ],
      "max": [
        1169
      ],
      "type": "SCALAR",
      "bufferView": 2,
      "byteOffset": 4728
    },
    {
      "name": "Mesh11 Group3 SnowShoes1 Model_1_positions",
      "componentType": 5126,
      "count": 1170,
      "min": [
        -65.93319702148438,
        0.75,
        27.152599334716797
      ],
      "max": [
        -25.8341007232666,
        1.75,
        47.55220031738281
      ],
      "type": "VEC3",
      "bufferView": 0,
      "byteOffset": 28008
    },
    {
      "name": "Mesh11 Group3 SnowShoes1 Model_1_normals",
      "componentType": 5126,
      "count": 1170,
      "min": [
        -1,
        -1,
        -0.9994919896125793
      ],
      "max": [
        1,
        1,
        0.9994919896125793
      ],
      "type": "VEC3",
      "bufferView": 0,
      "byteOffset": 111300
    },
    {
      "name": "Mesh11 Group3 SnowShoes1 Model_1_texcoords",
      "componentType": 5126,
      "count": 1170,
      "min": [
        -40.099098205566406,
        -19.399599075317383
      ],
      "max": [
        40.099098205566406,
        1
      ],
      "type": "VEC2",
      "bufferView": 1,
      "byteOffset": 18672
    },
    {
      "name": "Mesh11 Group3 SnowShoes1 Model_1_0_indices",
      "componentType": 5123,
      "count": 2364,
      "min": [
        0
      ],
      "max": [
        1169
      ],
      "type": "SCALAR",
      "bufferView": 2,
      "byteOffset": 9456
    },
    {
      "name": "Mesh16 Group4 SnowShoes1 Model_1_positions",
      "componentType": 5126,
      "count": 1164,
      "min": [
        -69.33889770507812,
        0,
        -17.804500579833984
      ],
      "max": [
        -46.65729904174805,
        1,
        20.885700225830078
      ],
      "type": "VEC3",
      "bufferView": 0,
      "byteOffset": 42048
    },
    {
      "name": "Mesh16 Group4 SnowShoes1 Model_1_normals",
      "componentType": 5126,
      "count": 1164,
      "min": [
        -0.9998070001602173,
        -1,
        -0.9951019883155823
      ],
      "max": [
        0.9998070001602173,
        1,
        0.9951019883155823
      ],
      "type": "VEC3",
      "bufferView": 0,
      "byteOffset": 125340
    },
    {
      "name": "Mesh16 Group4 SnowShoes1 Model_1_texcoords",
      "componentType": 5126,
      "count": 1164,
      "min": [
        -40.099098205566406,
        -19.399599075317383
      ],
      "max": [
        40.099098205566406,
        1
      ],
      "type": "VEC2",
      "bufferView": 1,
      "byteOffset": 28032
    },
    {
      "name": "Mesh16 Group4 SnowShoes1 Model_1_0_indices",
      "componentType": 5123,
      "count": 2364,
      "min": [
        0
      ],
      "max": [
        1163
      ],
      "type": "SCALAR",
      "bufferView": 2,
      "byteOffset": 14184
    },
    {
      "name": "Mesh21 Group5 Component1 SnowShoes1 Model_1_positions",
      "componentType": 5126,
      "count": 1133,
      "min": [
        32.863399505615234,
        3.930189845986233e-14,
        -65.50080108642578
      ],
      "max": [
        55.544898986816406,
        1,
        -26.81060028076172
      ],
      "type": "VEC3",
      "bufferView": 0,
      "byteOffset": 56016
    },
    {
      "name": "Mesh21 Group5 Component1 SnowShoes1 Model_1_normals",
      "componentType": 5126,
      "count": 1133,
      "min": [
        -0.9998070001602173,
        -1,
        -0.9951019883155823
      ],
      "max": [
        0.9998070001602173,
        1,
        0.9951019883155823
      ],
      "type": "VEC3",
      "bufferView": 0,
      "byteOffset": 139308
    },
    {
      "name": "Mesh21 Group5 Component1 SnowShoes1 Model_1_texcoords",
      "componentType": 5126,
      "count": 1133,
      "min": [
        -40.099098205566406,
        -43.265201568603516
      ],
      "max": [
        40.099098205566406,
        1
      ],
      "type": "VEC2",
      "bufferView": 1,
      "byteOffset": 37344
    },
    {
      "name": "Mesh21 Group5 Component1 SnowShoes1 Model_1_0_indices",
      "componentType": 5123,
      "count": 1080,
      "min": [
        0
      ],
      "max": [
        1103
      ],
      "type": "SCALAR",
      "bufferView": 2,
      "byteOffset": 18912
    },
    {
      "name": "Mesh21 Group5 Component1 SnowShoes1 Model_1_1_indices",
      "componentType": 5123,
      "count": 1095,
      "min": [
        4
      ],
      "max": [
        1132
      ],
      "type": "SCALAR",
      "bufferView": 2,
      "byteOffset": 21072
    },
    {
      "name": "Mesh21 Group5 Component1 SnowShoes1 Model_1_2_indices",
      "componentType": 5123,
      "count": 174,
      "min": [
        209
      ],
      "max": [
        1111
      ],
      "type": "SCALAR",
      "bufferView": 2,
      "byteOffset": 23264
    },
    {
      "name": "Mesh21 Group5 Component1 SnowShoes1 Model_1_3_indices",
      "componentType": 5123,
      "count": 15,
      "min": [
        563
      ],
      "max": [
        1032
      ],
      "type": "SCALAR",
      "bufferView": 2,
      "byteOffset": 23612
    },
    {
      "name": "Mesh26 Group6 Component1 SnowShoes1 Model_1_positions",
      "componentType": 5126,
      "count": 1140,
      "min": [
        36.26900100708008,
        0.75,
        -20.543699264526367
      ],
      "max": [
        76.36810302734375,
        1.75,
        -0.14407600462436676
      ],
      "type": "VEC3",
      "bufferView": 0,
      "byteOffset": 69612
    },
    {
      "name": "Mesh26 Group6 Component1 SnowShoes1 Model_1_normals",
      "componentType": 5126,
      "count": 1140,
      "min": [
        -1,
        -1,
        -0.9994919896125793
      ],
      "max": [
        1,
        1,
        0.9994919896125793
      ],
      "type": "VEC3",
      "bufferView": 0,
      "byteOffset": 152904
    },
    {
      "name": "Mesh26 Group6 Component1 SnowShoes1 Model_1_texcoords",
      "componentType": 5126,
      "count": 1140,
      "min": [
        -40.099098205566406,
        -43.265201568603516
      ],
      "max": [
        40.099098205566406,
        1
      ],
      "type": "VEC2",
      "bufferView": 1,
      "byteOffset": 46408
    },
    {
      "name": "Mesh26 Group6 Component1 SnowShoes1 Model_1_0_indices",
      "componentType": 5123,
      "count": 1095,
      "min": [
        4
      ],
      "max": [
        1139
      ],
      "type": "SCALAR",
      "bufferView": 2,
      "byteOffset": 23644
    },
    {
      "name": "Mesh26 Group6 Component1 SnowShoes1 Model_1_1_indices",
      "componentType": 5123,
      "count": 1080,
      "min": [
        0
      ],
      "max": [
        1109
      ],
      "type": "SCALAR",
      "bufferView": 2,
      "byteOffset": 25836
    },
    {
      "name": "Mesh26 Group6 Component1 SnowShoes1 Model_1_2_indices",
      "componentType": 5123,
      "count": 174,
      "min": [
        209
      ],
      "max": [
        1117
      ],
      "type": "SCALAR",
      "bufferView": 2,
      "byteOffset": 27996
    },
    {
      "name": "Mesh26 Group6 Component1 SnowShoes1 Model_1_3_indices",
      "componentType": 5123,
      "count": 15,
      "min": [
        563
      ],
      "max": [
        1037
      ],
      "type": "SCALAR",
      "bufferView": 2,
      "byteOffset": 28344
    }
  ],
  "asset": {
    "generator": "obj2gltf",
    "version": "2.0"
  },
  "buffers": [
    {
      "name": "SnowShoe",
      "byteLength": 250488,
      "uri": "data:application/octet-stream;base64,"
    }
  ],
  "bufferViews": [
    {
      "name": "bufferView_0",
      "buffer": 0,
      "byteLength": 166584,
      "byteOffset": 0,
      "byteStride": 12,
      "target": 34962
    },
    {
      "name": "bufferView_1",
      "buffer": 0,
      "byteLength": 55528,
      "byteOffset": 166584,
      "byteStride": 8,
      "target": 34962
    },
    {
      "name": "bufferView_2",
      "buffer": 0,
      "byteLength": 28376,
      "byteOffset": 222112,
      "target": 34963
    }
  ],
  "materials": [
    {
      "name": "_1",
      "pbrMetallicRoughness": {
        "baseColorFactor": [
          0.227451,
          0.227451,
          0.227451,
          1
        ],
        "metallicFactor": 0,
        "roughnessFactor": 1
      },
      "emissiveFactor": [
        0,
        0,
        0
      ],
      "alphaMode": "OPAQUE",
      "doubleSided": false
    },
    {
      "name": "Wood__Floor",
      "pbrMetallicRoughness": {
        "baseColorFactor": [
          0.607843,
          0.411765,
          0.239216,
          1
        ],
        "metallicFactor": 0,
        "roughnessFactor": 1
      },
      "emissiveFactor": [
        0,
        0,
        0
      ],
      "alphaMode": "OPAQUE",
      "doubleSided": false
    },
    {
      "name": "BackColor",
      "pbrMetallicRoughness": {
        "baseColorFactor": [
          0.643137,
          0.698039,
          0.733333,
          1
        ],
        "metallicFactor": 0,
        "roughnessFactor": 1
      },
      "emissiveFactor": [
        0,
        0,
        0
      ],
      "alphaMode": "OPAQUE",
      "doubleSided": false
    },
    {
      "name": "Fencing_Lattice_Natural",
      "pbrMetallicRoughness": {
        "baseColorFactor": [
          0.701961,
          0.580392,
          0.498039,
          1
        ],
        "metallicFactor": 0,
        "roughnessFactor": 1
      },
      "emissiveFactor": [
        0,
        0,
        0
      ],
      "alphaMode": "OPAQUE",
      "doubleSided": false
    },
    {
      "name": "FrontColor",
      "pbrMetallicRoughness": {
        "baseColorFactor": [
          1,
          1,
          1,
          1
        ],
        "metallicFactor": 0,
        "roughnessFactor": 1
      },
      "emissiveFactor": [
        0,
        0,
        0
      ],
      "alphaMode": "OPAQUE",
      "doubleSided": false
    }
  ],
  "meshes": [
    {
      "name": "Mesh1 Group1 SnowShoes1 Model_1",
      "primitives": [
        {
          "attributes": {
            "POSITION": 0,
            "NORMAL": 1,
            "TEXCOORD_0": 2
          },
          "indices": 3,
          "material": 0,
          "mode": 4
        }
      ]
    },
    {
      "name": "Mesh6 Group2 SnowShoes1 Model_1",
      "primitives": [
        {
          "attributes": {
            "POSITION": 4,
            "NORMAL": 5,
            "TEXCOORD_0": 6
          },
          "indices": 7,
          "material": 0,
          "mode": 4
        }
      ]
    },
    {
      "name": "Mesh11 Group3 SnowShoes1 Model_1",
      "primitives": [
        {
          "attributes": {
            "POSITION": 8,
            "NORMAL": 9,
            "TEXCOORD_0": 10
          },
          "indices": 11,
          "material": 0,
          "mode": 4
        }
      ]
    },
    {
      "name": "Mesh16 Group4 SnowShoes1 Model_1",
      "primitives": [
        {
          "attributes": {
            "POSITION": 12,
            "NORMAL": 13,
            "TEXCOORD_0": 14
          },
          "indices": 15,
          "material": 0,
          "mode": 4
        }
      ]
    },
    {
      "name": "Mesh21 Group5 Component1 SnowShoes1 Model_1",
      "primitives": [
        {
          "attributes": {
            "POSITION": 16,
            "NORMAL": 17,
            "TEXCOORD_0": 18
          },
          "indices": 19,
          "material": 1,
          "mode": 4
        },
        {
          "attributes": {
            "POSITION": 16,
            "NORMAL": 17,
            "TEXCOORD_0": 18
          },
          "indices": 20,
          "material": 2,
          "mode": 4
        },
        {
          "attributes": {
            "POSITION": 16,
            "NORMAL": 17,
            "TEXCOORD_0": 18
          },
          "indices": 21,
          "material": 3,
          "mode": 4
        },
        {
          "attributes": {
            "POSITION": 16,
            "NORMAL": 17,
            "TEXCOORD_0": 18
          },
          "indices": 22,
          "material": 4,
          "mode": 4
        }
      ]
    },
    {
      "name": "Mesh26 Group6 Component1 SnowShoes1 Model_1",
      "primitives": [
        {
          "attributes": {
            "POSITION": 23,
            "NORMAL": 24,
            "TEXCOORD_0": 25
          },
          "indices": 26,
          "material": 2,
          "mode": 4
        },
        {
          "attributes": {
            "POSITION": 23,
            "NORMAL": 24,
            "TEXCOORD_0": 25
          },
          "indices": 27,
          "material": 1,
          "mode": 4
        },
        {
          "attributes": {
            "POSITION": 23,
            "NORMAL": 24,
            "TEXCOORD_0": 25
          },
          "indices": 28,
          "material": 3,
          "mode": 4
        },
        {
          "attributes": {
            "POSITION": 23,
            "NORMAL": 24,
            "TEXCOORD_0": 25
          },
          "indices": 29,
          "material": 4,
          "mode": 4
        }
      ]
    }
  ],
  "nodes": [
    {
      "name": "Mesh1 Group1 SnowShoes1 Model",
      "mesh": 0
    },
    {
      "name": "Mesh6 Group2 SnowShoes1 Model",
      "mesh": 1
    },
    {
      "name": "Mesh11 Group3 SnowShoes1 Model",
      "mesh": 2
    },
    {
      "name": "Mesh16 Group4 SnowShoes1 Model",
      "mesh": 3
    },
    {
      "name": "Mesh21 Group5 Component1 SnowShoes1 Model",
      "mesh": 4
    },
    {
      "name": "Mesh26 Group6 Component1 SnowShoes1 Model",
      "mesh": 5
    }
  ],
  "scene": 0,
  "scenes": [
    {
      "nodes": [
        0,
        1,
        2,
        3,
        4,
        5
      ]
    }
  ]
}
