{
  "accessors": [
    {
      "name": "Mesh1 Group1 Climbing1 Model_1_positions",
      "componentType": 5126,
      "count": 258,
      "min": [
        -6673.22998046875,
        -211,
        -6286.5400390625
      ],
      "max": [
        4786.27001953125,
        4794.58984375,
        4453.60009765625
      ],
      "type": "VEC3",
      "bufferView": 0,
      "byteOffset": 0
    },
    {
      "name": "Mesh1 Group1 Climbing1 Model_1_normals",
      "componentType": 5126,
      "count": 258,
      "min": [
        -0.9505760073661804,
        -0.998134970664978,
        -0.9702469706535339
      ],
      "max": [
        0.9505760073661804,
        0.998134970664978,
        0.9702469706535339
      ],
      "type": "VEC3",
      "bufferView": 0,
      "byteOffset": 21672
    },
    {
      "name": "Mesh1 Group1 Climbing1 Model_1_texcoords",
      "componentType": 5126,
      "count": 258,
      "min": [
        -12480.5,
        -11016.400390625
      ],
      "max": [
        12142.900390625,
        4672.77978515625
      ],
      "type": "VEC2",
      "bufferView": 1,
      "byteOffset": 0
    },
    {
      "name": "Mesh1 Group1 Climbing1 Model_1_0_indices",
      "componentType": 5123,
      "count": 111,
      "min": [
        0
      ],
      "max": [
        251
      ],
      "type": "SCALAR",
      "bufferView": 2,
      "byteOffset": 0
    },
    {
      "name": "Mesh1 Group1 Climbing1 Model_1_1_indices",
      "componentType": 5123,
      "count": 159,
      "min": [
        3
      ],
      "max": [
        257
      ],
      "type": "SCALAR",
      "bufferView": 2,
      "byteOffset": 224
    },
    {
      "name": "Mesh3 Group2 ROCKS1 Climbing1 Model_1_positions",
      "componentType": 5126,
      "count": 258,
      "min": [
        -5503.240234375,
        1563.8800048828125,
        -5304.22998046875
      ],
      "max": [
        -3638.18994140625,
        2858.72998046875,
        -3859.419921875
      ],
      "type": "VEC3",
      "bufferView": 0,
      "byteOffset": 3096
    },
    {
      "name": "Mesh3 Group2 ROCKS1 Climbing1 Model_1_normals",
      "componentType": 5126,
      "count": 258,
      "min": [
        -0.9792770147323608,
        -0.9992979764938354,
        -0.9858760237693787
      ],
      "max": [
        0.9792770147323608,
        0.9992979764938354,
        0.9858760237693787
      ],
      "type": "VEC3",
      "bufferView": 0,
      "byteOffset": 24768
    },
    {
      "name": "Mesh3 Group2 ROCKS1 Climbing1 Model_1_texcoords",
      "componentType": 5126,
      "count": 258,
      "min": [
        -12480.5,
        -11016.400390625
      ],
      "max": [
        12142.900390625,
        4672.77978515625
      ],
      "type": "VEC2",
      "bufferView": 1,
      "byteOffset": 2064
    },
    {
      "name": "Mesh3 Group2 ROCKS1 Climbing1 Model_1_0_indices",
      "componentType": 5123,
      "count": 159,
      "min": [
        3
      ],
      "max": [
        257
      ],
      "type": "SCALAR",
      "bufferView": 2,
      "byteOffset": 544
    },
    {
      "name": "Mesh3 Group2 ROCKS1 Climbing1 Model_1_1_indices",
      "componentType": 5123,
      "count": 111,
      "min": [
        0
      ],
      "max": [
        251
      ],
      "type": "SCALAR",
      "bufferView": 2,
      "byteOffset": 864
    },
    {
      "name": "Mesh5 Group3 ROCKS1 Climbing1 Model_1_positions",
      "componentType": 5126,
      "count": 258,
      "min": [
        -4287.990234375,
        1606.1300048828125,
        -6088.830078125
      ],
      "max": [
        -2746.330078125,
        3345.320068359375,
        -4440.77001953125
      ],
      "type": "VEC3",
      "bufferView": 0,
      "byteOffset": 6192
    },
    {
      "name": "Mesh5 Group3 ROCKS1 Climbing1 Model_1_normals",
      "componentType": 5126,
      "count": 258,
      "min": [
        -0.9089000225067139,
        -0.9858599901199341,
        -0.9645980000495911
      ],
      "max": [
        0.9089000225067139,
        0.9858599901199341,
        0.9645980000495911
      ],
      "type": "VEC3",
      "bufferView": 0,
      "byteOffset": 27864
    },
    {
      "name": "Mesh5 Group3 ROCKS1 Climbing1 Model_1_texcoords",
      "componentType": 5126,
      "count": 258,
      "min": [
        -12480.5,
        -11016.400390625
      ],
      "max": [
        12142.900390625,
        4672.77978515625
      ],
      "type": "VEC2",
      "bufferView": 1,
      "byteOffset": 4128
    },
    {
      "name": "Mesh5 Group3 ROCKS1 Climbing1 Model_1_0_indices",
      "componentType": 5123,
      "count": 159,
      "min": [
        3
      ],
      "max": [
        257
      ],
      "type": "SCALAR",
      "bufferView": 2,
      "byteOffset": 1088
    },
    {
      "name": "Mesh5 Group3 ROCKS1 Climbing1 Model_1_1_indices",
      "componentType": 5123,
      "count": 111,
      "min": [
        0
      ],
      "max": [
        251
      ],
      "type": "SCALAR",
      "bufferView": 2,
      "byteOffset": 1408
    },
    {
      "name": "Mesh7 Group4 ROCKS2 Climbing1 Model_1_positions",
      "componentType": 5126,
      "count": 258,
      "min": [
        -6123.419921875,
        1702.489990234375,
        -3645.280029296875
      ],
      "max": [
        -4795.72998046875,
        2330.0400390625,
        -1351.27001953125
      ],
      "type": "VEC3",
      "bufferView": 0,
      "byteOffset": 9288
    },
    {
      "name": "Mesh7 Group4 ROCKS2 Climbing1 Model_1_normals",
      "componentType": 5126,
      "count": 258,
      "min": [
        -0.921654999256134,
        -0.9998909831047058,
        -0.9986330270767212
      ],
      "max": [
        0.921654999256134,
        0.9998909831047058,
        0.9986330270767212
      ],
      "type": "VEC3",
      "bufferView": 0,
      "byteOffset": 30960
    },
    {
      "name": "Mesh7 Group4 ROCKS2 Climbing1 Model_1_texcoords",
      "componentType": 5126,
      "count": 258,
      "min": [
        -12480.5,
        -11016.400390625
      ],
      "max": [
        12142.900390625,
        4672.77978515625
      ],
      "type": "VEC2",
      "bufferView": 1,
      "byteOffset": 6192
    },
    {
      "name": "Mesh7 Group4 ROCKS2 Climbing1 Model_1_0_indices",
      "componentType": 5123,
      "count": 159,
      "min": [
        3
      ],
      "max": [
        257
      ],
      "type": "SCALAR",
      "bufferView": 2,
      "byteOffset": 1632
    },
    {
      "name": "Mesh7 Group4 ROCKS2 Climbing1 Model_1_1_indices",
      "componentType": 5123,
      "count": 111,
      "min": [
        0
      ],
      "max": [
        251
      ],
      "type": "SCALAR",
      "bufferView": 2,
      "byteOffset": 1952
    },
    {
      "name": "Mesh9 Group5 ROCKS2 Climbing1 Model_1_positions",
      "componentType": 5126,
      "count": 258,
      "min": [
        -6236.4599609375,
        1500.6400146484375,
        -2124.60009765625
      ],
      "max": [
        -5020.2001953125,
        2389.7900390625,
        -174.28700256347656
      ],
      "type": "VEC3",
      "bufferView": 0,
      "byteOffset": 12384
    },
    {
      "name": "Mesh9 Group5 ROCKS2 Climbing1 Model_1_normals",
      "componentType": 5126,
      "count": 258,
      "min": [
        -0.9473069906234741,
        -0.9984220266342163,
        -0.9817270040512085
      ],
      "max": [
        0.9473069906234741,
        0.9984220266342163,
        0.9817270040512085
      ],
      "type": "VEC3",
      "bufferView": 0,
      "byteOffset": 34056
    },
    {
      "name": "Mesh9 Group5 ROCKS2 Climbing1 Model_1_texcoords",
      "componentType": 5126,
      "count": 258,
      "min": [
        -12480.5,
        -11016.400390625
      ],
      "max": [
        12142.900390625,
        4672.77978515625
      ],
      "type": "VEC2",
      "bufferView": 1,
      "byteOffset": 8256
    },
    {
      "name": "Mesh9 Group5 ROCKS2 Climbing1 Model_1_0_indices",
      "componentType": 5123,
      "count": 159,
      "min": [
        3
      ],
      "max": [
        257
      ],
      "type": "SCALAR",
      "bufferView": 2,
      "byteOffset": 2176
    },
    {
      "name": "Mesh9 Group5 ROCKS2 Climbing1 Model_1_1_indices",
      "componentType": 5123,
      "count": 111,
      "min": [
        0
      ],
      "max": [
        251
      ],
      "type": "SCALAR",
      "bufferView": 2,
      "byteOffset": 2496
    },
    {
      "name": "Mesh11 Group6 ROCKS3 Climbing1 Model_1_positions",
      "componentType": 5126,
      "count": 258,
      "min": [
        -3699.0400390625,
        1575.280029296875,
        1967.510009765625
      ],
      "max": [
        -2343.14990234375,
        2202.840087890625,
        3827.10009765625
      ],
      "type": "VEC3",
      "bufferView": 0,
      "byteOffset": 15480
    },
    {
      "name": "Mesh11 Group6 ROCKS3 Climbing1 Model_1_normals",
      "componentType": 5126,
      "count": 258,
      "min": [
        -0.9761300086975098,
        -0.999925971031189,
        -0.9962350130081177
      ],
      "max": [
        0.9761300086975098,
        0.999925971031189,
        0.9962350130081177
      ],
      "type": "VEC3",
      "bufferView": 0,
      "byteOffset": 37152
    },
    {
      "name": "Mesh11 Group6 ROCKS3 Climbing1 Model_1_texcoords",
      "componentType": 5126,
      "count": 258,
      "min": [
        -12480.5,
        -11016.400390625
      ],
      "max": [
        12142.900390625,
        4672.77978515625
      ],
      "type": "VEC2",
      "bufferView": 1,
      "byteOffset": 10320
    },
    {
      "name": "Mesh11 Group6 ROCKS3 Climbing1 Model_1_0_indices",
      "componentType": 5123,
      "count": 159,
      "min": [
        3
      ],
      "max": [
        257
      ],
      "type": "SCALAR",
      "bufferView": 2,
      "byteOffset": 2720
    },
    {
      "name": "Mesh11 Group6 ROCKS3 Climbing1 Model_1_1_indices",
      "componentType": 5123,
      "count": 111,
      "min": [
        0
      ],
      "max": [
        251
      ],
      "type": "SCALAR",
      "bufferView": 2,
      "byteOffset": 3040
    },
    {
      "name": "Mesh13 Group7 ROCKS3 Climbing1 Model_1_positions",
      "componentType": 5126,
      "count": 258,
      "min": [
        -4460.3701171875,
        1373.43994140625,
        1100.0999755859375
      ],
      "max": [
        -2834.919921875,
        2262.580078125,
        2505.169921875
      ],
      "type": "VEC3",
      "bufferView": 0,
      "byteOffset": 18576
    },
    {
      "name": "Mesh13 Group7 ROCKS3 Climbing1 Model_1_normals",
      "componentType": 5126,
      "count": 258,
      "min": [
        -0.9459999799728394,
        -0.9989039897918701,
        -0.9208139777183533
      ],
      "max": [
        0.9459999799728394,
        0.9989039897918701,
        0.9208139777183533
      ],
      "type": "VEC3",
      "bufferView": 0,
      "byteOffset": 40248
    },
    {
      "name": "Mesh13 Group7 ROCKS3 Climbing1 Model_1_texcoords",
      "componentType": 5126,
      "count": 258,
      "min": [
        -12480.5,
        -11016.400390625
      ],
      "max": [
        12142.900390625,
        4672.77978515625
      ],
      "type": "VEC2",
      "bufferView": 1,
      "byteOffset": 12384
    },
    {
      "name": "Mesh13 Group7 ROCKS3 Climbing1 Model_1_0_indices",
      "componentType": 5123,
      "count": 159,
      "min": [
        3
      ],
      "max": [
        257
      ],
      "type": "SCALAR",
      "bufferView": 2,
      "byteOffset": 3264
    },
    {
      "name": "Mesh13 Group7 ROCKS3 Climbing1 Model_1_1_indices",
      "componentType": 5123,
      "count": 111,
      "min": [
        0
      ],
      "max": [
        251
      ],
      "type": "SCALAR",
      "bufferView": 2,
      "byteOffset": 3584
    }
  ],
  "asset": {
    "generator": "obj2gltf",
    "version": "2.0"
  },
  "buffers": [
    {
      "name": "Climbing_Fixed",
      "byteLength": 61600,
      "uri": "data:application/octet-stream;base64,"
    }
  ],
  "bufferViews": [
    {
      "name": "bufferView_0",
      "buffer": 0,
      "byteLength": 43344,
      "byteOffset": 0,
      "byteStride": 12,
      "target": 34962
    },
    {
      "name": "bufferView_1",
      "buffer": 0,
      "byteLength": 14448,
      "byteOffset": 43344,
      "byteStride": 8,
      "target": 34962
    },
    {
      "name": "bufferView_2",
      "buffer": 0,
      "byteLength": 3808,
      "byteOffset": 57792,
      "target": 34963
    }
  ],
  "materials": [
    {
      "name": "Color_M03",
      "pbrMetallicRoughness": {
        "baseColorFactor": [
          0.666667,
          0.666667,
          0.666667,
          1
        ],
        "metallicFactor": 0,
        "roughnessFactor": 1
      },
      "emissiveFactor": [
        0,
        0,
        0
      ],
      "alphaMode": "OPAQUE",
      "doubleSided": false
    },
    {
      "name": "_2",
      "pbrMetallicRoughness": {
        "baseColorFactor": [
          0.6,
          0.6,
          0.596078,
          1
        ],
        "metallicFactor": 0,
        "roughnessFactor": 1
      },
      "emissiveFactor": [
        0,
        0,
        0
      ],
      "alphaMode": "OPAQUE",
      "doubleSided": false
    }
  ],
  "meshes": [
    {
      "name": "Mesh1 Group1 Climbing1 Model_1",
      "primitives": [
        {
          "attributes": {
            "POSITION": 0,
            "NORMAL": 1,
            "TEXCOORD_0": 2
          },
          "indices": 3,
          "material": 0,
          "mode": 4
        },
        {
          "attributes": {
            "POSITION": 0,
            "NORMAL": 1,
            "TEXCOORD_0": 2
          },
          "indices": 4,
          "material": 1,
          "mode": 4
        }
      ]
    },
    {
      "name": "Mesh3 Group2 ROCKS1 Climbing1 Model_1",
      "primitives": [
        {
          "attributes": {
            "POSITION": 5,
            "NORMAL": 6,
            "TEXCOORD_0": 7
          },
          "indices": 8,
          "material": 1,
          "mode": 4
        },
        {
          "attributes": {
            "POSITION": 5,
            "NORMAL": 6,
            "TEXCOORD_0": 7
          },
          "indices": 9,
          "material": 0,
          "mode": 4
        }
      ]
    },
    {
      "name": "Mesh5 Group3 ROCKS1 Climbing1 Model_1",
      "primitives": [
        {
          "attributes": {
            "POSITION": 10,
            "NORMAL": 11,
            "TEXCOORD_0": 12
          },
          "indices": 13,
          "material": 1,
          "mode": 4
        },
        {
          "attributes": {
            "POSITION": 10,
            "NORMAL": 11,
            "TEXCOORD_0": 12
          },
          "indices": 14,
          "material": 0,
          "mode": 4
        }
      ]
    },
    {
      "name": "Mesh7 Group4 ROCKS2 Climbing1 Model_1",
      "primitives": [
        {
          "attributes": {
            "POSITION": 15,
            "NORMAL": 16,
            "TEXCOORD_0": 17
          },
          "indices": 18,
          "material": 1,
          "mode": 4
        },
        {
          "attributes": {
            "POSITION": 15,
            "NORMAL": 16,
            "TEXCOORD_0": 17
          },
          "indices": 19,
          "material": 0,
          "mode": 4
        }
      ]
    },
    {
      "name": "Mesh9 Group5 ROCKS2 Climbing1 Model_1",
      "primitives": [
        {
          "attributes": {
            "POSITION": 20,
            "NORMAL": 21,
            "TEXCOORD_0": 22
          },
          "indices": 23,
          "material": 1,
          "mode": 4
        },
        {
          "attributes": {
            "POSITION": 20,
            "NORMAL": 21,
            "TEXCOORD_0": 22
          },
          "indices": 24,
          "material": 0,
          "mode": 4
        }
      ]
    },
    {
      "name": "Mesh11 Group6 ROCKS3 Climbing1 Model_1",
      "primitives": [
        {
          "attributes": {
            "POSITION": 25,
            "NORMAL": 26,
            "TEXCOORD_0": 27
          },
          "indices": 28,
          "material": 1,
          "mode": 4
        },
        {
          "attributes": {
            "POSITION": 25,
            "NORMAL": 26,
            "TEXCOORD_0": 27
          },
          "indices": 29,
          "material": 0,
          "mode": 4
        }
      ]
    },
    {
      "name": "Mesh13 Group7 ROCKS3 Climbing1 Model_1",
      "primitives": [
        {
          "attributes": {
            "POSITION": 30,
            "NORMAL": 31,
            "TEXCOORD_0": 32
          },
          "indices": 33,
          "material": 1,
          "mode": 4
        },
        {
          "attributes": {
            "POSITION": 30,
            "NORMAL": 31,
            "TEXCOORD_0": 32
          },
          "indices": 34,
          "material": 0,
          "mode": 4
        }
      ]
    }
  ],
  "nodes": [
    {
      "name": "Mesh1 Group1 Climbing1 Model",
      "mesh": 0
    },
    {
      "name": "Mesh3 Group2 ROCKS1 Climbing1 Model",
      "mesh": 1
    },
    {
      "name": "Mesh5 Group3 ROCKS1 Climbing1 Model",
      "mesh": 2
    },
    {
      "name": "Mesh7 Group4 ROCKS2 Climbing1 Model",
      "mesh": 3
    },
    {
      "name": "Mesh9 Group5 ROCKS2 Climbing1 Model",
      "mesh": 4
    },
    {
      "name": "Mesh11 Group6 ROCKS3 Climbing1 Model",
      "mesh": 5
    },
    {
      "name": "Mesh13 Group7 ROCKS3 Climbing1 Model",
      "mesh": 6
    }
  ],
  "scene": 0,
  "scenes": [
    {
      "nodes": [
        0,
        1,
        2,
        3,
        4,
        5,
        6
      ]
    }
  ]
}
