{
  "accessors": [
    {
      "name": "Mesh1 Group1 Swim1 Model_1_positions",
      "componentType": 5126,
      "count": 48,
      "min": [
        -1229.18994140625,
        8.757180093924011e-13,
        -333.8890075683594
      ],
      "max": [
        -914.5700073242188,
        56.43479919433594,
        -23.050500869750977
      ],
      "type": "VEC3",
      "bufferView": 0,
      "byteOffset": 0
    },
    {
      "name": "Mesh1 Group1 Swim1 Model_1_normals",
      "componentType": 5126,
      "count": 48,
      "min": [
        -0.7419760227203369,
        -1,
        -0.7419760227203369
      ],
      "max": [
        0.7419760227203369,
        1,
        0.7419760227203369
      ],
      "type": "VEC3",
      "bufferView": 0,
      "byteOffset": 10752
    },
    {
      "name": "Mesh1 Group1 Swim1 Model_1_texcoords",
      "componentType": 5126,
      "count": 48,
      "min": [
        -172.01699829101562,
        -171.01699829101562
      ],
      "max": [
        172.01699829101562,
        1
      ],
      "type": "VEC2",
      "bufferView": 1,
      "byteOffset": 0
    },
    {
      "name": "Mesh1 Group1 Swim1 Model_1_0_indices",
      "componentType": 5123,
      "count": 36,
      "min": [
        0
      ],
      "max": [
        41
      ],
      "type": "SCALAR",
      "bufferView": 2,
      "byteOffset": 0
    },
    {
      "name": "Mesh1 Group1 Swim1 Model_1_1_indices",
      "componentType": 5123,
      "count": 36,
      "min": [
        4
      ],
      "max": [
        47
      ],
      "type": "SCALAR",
      "bufferView": 2,
      "byteOffset": 72
    },
    {
      "name": "Mesh3 Group2 Swim1 Model_1_positions",
      "componentType": 5126,
      "count": 244,
      "min": [
        -1075.280029296875,
        59.78160095214844,
        -374.5090026855469
      ],
      "max": [
        -378.010986328125,
        593.8369750976562,
        323.63299560546875
      ],
      "type": "VEC3",
      "bufferView": 0,
      "byteOffset": 576
    },
    {
      "name": "Mesh3 Group2 Swim1 Model_1_normals",
      "componentType": 5126,
      "count": 244,
      "min": [
        -0.7419760227203369,
        -1,
        -0.7419760227203369
      ],
      "max": [
        0.7419760227203369,
        1,
        0.7419760227203369
      ],
      "type": "VEC3",
      "bufferView": 0,
      "byteOffset": 11328
    },
    {
      "name": "Mesh3 Group2 Swim1 Model_1_texcoords",
      "componentType": 5126,
      "count": 244,
      "min": [
        -1601.25,
        -1827.530029296875
      ],
      "max": [
        1601.25,
        437.0880126953125
      ],
      "type": "VEC2",
      "bufferView": 1,
      "byteOffset": 384
    },
    {
      "name": "Mesh3 Group2 Swim1 Model_1_0_indices",
      "componentType": 5123,
      "count": 114,
      "min": [
        3
      ],
      "max": [
        232
      ],
      "type": "SCALAR",
      "bufferView": 2,
      "byteOffset": 144
    },
    {
      "name": "Mesh3 Group2 Swim1 Model_1_1_indices",
      "componentType": 5123,
      "count": 354,
      "min": [
        0
      ],
      "max": [
        243
      ],
      "type": "SCALAR",
      "bufferView": 2,
      "byteOffset": 372
    },
    {
      "name": "Mesh9 Group3 Swim1 Model_1_positions",
      "componentType": 5126,
      "count": 48,
      "min": [
        -1064.9300537109375,
        8.757180093924011e-13,
        -372.2950134277344
      ],
      "max": [
        -376.7869873046875,
        56.43479919433594,
        317.5849914550781
      ],
      "type": "VEC3",
      "bufferView": 0,
      "byteOffset": 3504
    },
    {
      "name": "Mesh9 Group3 Swim1 Model_1_normals",
      "componentType": 5126,
      "count": 48,
      "min": [
        -0.7419760227203369,
        -1,
        -0.7419760227203369
      ],
      "max": [
        0.7419760227203369,
        1,
        0.7419760227203369
      ],
      "type": "VEC3",
      "bufferView": 0,
      "byteOffset": 14256
    },
    {
      "name": "Mesh9 Group3 Swim1 Model_1_texcoords",
      "componentType": 5126,
      "count": 48,
      "min": [
        -172.01699829101562,
        -171.01699829101562
      ],
      "max": [
        172.01699829101562,
        1
      ],
      "type": "VEC2",
      "bufferView": 1,
      "byteOffset": 2336
    },
    {
      "name": "Mesh9 Group3 Swim1 Model_1_0_indices",
      "componentType": 5123,
      "count": 36,
      "min": [
        0
      ],
      "max": [
        41
      ],
      "type": "SCALAR",
      "bufferView": 2,
      "byteOffset": 1080
    },
    {
      "name": "Mesh9 Group3 Swim1 Model_1_1_indices",
      "componentType": 5123,
      "count": 36,
      "min": [
        4
      ],
      "max": [
        47
      ],
      "type": "SCALAR",
      "bufferView": 2,
      "byteOffset": 1152
    },
    {
      "name": "Mesh11 Group4 Swim1 Model_1_positions",
      "componentType": 5126,
      "count": 36,
      "min": [
        -168.60699462890625,
        315.1090087890625,
        -805.8989868164062
      ],
      "max": [
        209.14500427246094,
        368.8349914550781,
        -404.70599365234375
      ],
      "type": "VEC3",
      "bufferView": 0,
      "byteOffset": 4080
    },
    {
      "name": "Mesh11 Group4 Swim1 Model_1_normals",
      "componentType": 5126,
      "count": 36,
      "min": [
        -0.9577999711036682,
        -0.24834999442100525,
        -0.9018359780311584
      ],
      "max": [
        0.9577999711036682,
        0.24834999442100525,
        0.9018359780311584
      ],
      "type": "VEC3",
      "bufferView": 0,
      "byteOffset": 14832
    },
    {
      "name": "Mesh11 Group4 Swim1 Model_1_texcoords",
      "componentType": 5126,
      "count": 36,
      "min": [
        -228.03199768066406,
        -198.25100708007812
      ],
      "max": [
        228.03199768066406,
        185.9510040283203
      ],
      "type": "VEC2",
      "bufferView": 1,
      "byteOffset": 2720
    },
    {
      "name": "Mesh11 Group4 Swim1 Model_1_0_indices",
      "componentType": 5123,
      "count": 36,
      "min": [
        0
      ],
      "max": [
        35
      ],
      "type": "SCALAR",
      "bufferView": 2,
      "byteOffset": 1224
    },
    {
      "name": "Mesh13 Group5 Swim1 Model_1_positions",
      "componentType": 5126,
      "count": 48,
      "min": [
        -498.27801513671875,
        6.083889902280815e-13,
        -555.885009765625
      ],
      "max": [
        -16.345300674438477,
        56.43479919433594,
        -47.92390060424805
      ],
      "type": "VEC3",
      "bufferView": 0,
      "byteOffset": 4512
    },
    {
      "name": "Mesh13 Group5 Swim1 Model_1_normals",
      "componentType": 5126,
      "count": 48,
      "min": [
        -0.7419760227203369,
        -1,
        -0.7419760227203369
      ],
      "max": [
        0.7419760227203369,
        1,
        0.7419760227203369
      ],
      "type": "VEC3",
      "bufferView": 0,
      "byteOffset": 15264
    },
    {
      "name": "Mesh13 Group5 Swim1 Model_1_texcoords",
      "componentType": 5126,
      "count": 48,
      "min": [
        -172.01699829101562,
        -171.01699829101562
      ],
      "max": [
        172.01699829101562,
        1
      ],
      "type": "VEC2",
      "bufferView": 1,
      "byteOffset": 3008
    },
    {
      "name": "Mesh13 Group5 Swim1 Model_1_0_indices",
      "componentType": 5123,
      "count": 36,
      "min": [
        0
      ],
      "max": [
        41
      ],
      "type": "SCALAR",
      "bufferView": 2,
      "byteOffset": 1296
    },
    {
      "name": "Mesh13 Group5 Swim1 Model_1_1_indices",
      "componentType": 5123,
      "count": 36,
      "min": [
        4
      ],
      "max": [
        47
      ],
      "type": "SCALAR",
      "bufferView": 2,
      "byteOffset": 1368
    },
    {
      "name": "Mesh15 Group6 Swim1 Model_1_positions",
      "componentType": 5126,
      "count": 424,
      "min": [
        -146.74200439453125,
        1.1430499559025864e-12,
        -783.9949951171875
      ],
      "max": [
        185.91900634765625,
        316.79901123046875,
        -439.3280029296875
      ],
      "type": "VEC3",
      "bufferView": 0,
      "byteOffset": 5088
    },
    {
      "name": "Mesh15 Group6 Swim1 Model_1_normals",
      "componentType": 5126,
      "count": 424,
      "min": [
        -0.9809030294418335,
        -1,
        -0.9809030294418335
      ],
      "max": [
        0.9809030294418335,
        1,
        0.9809030294418335
      ],
      "type": "VEC3",
      "bufferView": 0,
      "byteOffset": 15840
    },
    {
      "name": "Mesh15 Group6 Swim1 Model_1_texcoords",
      "componentType": 5126,
      "count": 424,
      "min": [
        -237.84100341796875,
        -218.7239990234375
      ],
      "max": [
        237.84100341796875,
        1
      ],
      "type": "VEC2",
      "bufferView": 1,
      "byteOffset": 3392
    },
    {
      "name": "Mesh15 Group6 Swim1 Model_1_0_indices",
      "componentType": 5123,
      "count": 408,
      "min": [
        4
      ],
      "max": [
        423
      ],
      "type": "SCALAR",
      "bufferView": 2,
      "byteOffset": 1440
    },
    {
      "name": "Mesh15 Group6 Swim1 Model_1_1_indices",
      "componentType": 5123,
      "count": 408,
      "min": [
        0
      ],
      "max": [
        420
      ],
      "type": "SCALAR",
      "bufferView": 2,
      "byteOffset": 2256
    },
    {
      "name": "Mesh17 Group7 Swim1 Model_1_positions",
      "componentType": 5126,
      "count": 48,
      "min": [
        -724.3380126953125,
        3.410610010558257e-13,
        -63.160499572753906
      ],
      "max": [
        404.98199462890625,
        56.43479919433594,
        1025.3499755859375
      ],
      "type": "VEC3",
      "bufferView": 0,
      "byteOffset": 10176
    },
    {
      "name": "Mesh17 Group7 Swim1 Model_1_normals",
      "componentType": 5126,
      "count": 48,
      "min": [
        -0.7419760227203369,
        -1,
        -0.7419760227203369
      ],
      "max": [
        0.7419760227203369,
        1,
        0.7419760227203369
      ],
      "type": "VEC3",
      "bufferView": 0,
      "byteOffset": 20928
    },
    {
      "name": "Mesh17 Group7 Swim1 Model_1_texcoords",
      "componentType": 5126,
      "count": 48,
      "min": [
        -172.01699829101562,
        -171.01699829101562
      ],
      "max": [
        172.01699829101562,
        1
      ],
      "type": "VEC2",
      "bufferView": 1,
      "byteOffset": 6784
    },
    {
      "name": "Mesh17 Group7 Swim1 Model_1_0_indices",
      "componentType": 5123,
      "count": 36,
      "min": [
        4
      ],
      "max": [
        47
      ],
      "type": "SCALAR",
      "bufferView": 2,
      "byteOffset": 3072
    },
    {
      "name": "Mesh17 Group7 Swim1 Model_1_1_indices",
      "componentType": 5123,
      "count": 36,
      "min": [
        0
      ],
      "max": [
        41
      ],
      "type": "SCALAR",
      "bufferView": 2,
      "byteOffset": 3144
    }
  ],
  "asset": {
    "generator": "obj2gltf",
    "version": "2.0"
  },
  "buffers": [
    {
      "name": "Beach",
      "byteLength": 31888,
      "uri": "data:application/octet-stream;base64,"
    }
  ],
  "bufferViews": [
    {
      "name": "bufferView_0",
      "buffer": 0,
      "byteLength": 21504,
      "byteOffset": 0,
      "byteStride": 12,
      "target": 34962
    },
    {
      "name": "bufferView_1",
      "buffer": 0,
      "byteLength": 7168,
      "byteOffset": 21504,
      "byteStride": 8,
      "target": 34962
    },
    {
      "name": "bufferView_2",
      "buffer": 0,
      "byteLength": 3216,
      "byteOffset": 28672,
      "target": 34963
    }
  ],
  "materials": [
    {
      "name": "TAN",
      "pbrMetallicRoughness": {
        "baseColorFactor": [
          1,
          0.898039,
          0.8,
          1
        ],
        "metallicFactor": 0,
        "roughnessFactor": 1
      },
      "emissiveFactor": [
        0,
        0,
        0
      ],
      "alphaMode": "OPAQUE",
      "doubleSided": false
    },
    {
      "name": "_22",
      "pbrMetallicRoughness": {
        "baseColorFactor": [
          0.12549,
          0.568627,
          0.086275,
          1
        ],
        "metallicFactor": 0,
        "roughnessFactor": 1
      },
      "emissiveFactor": [
        0,
        0,
        0
      ],
      "alphaMode": "OPAQUE",
      "doubleSided": false
    }
  ],
  "meshes": [
    {
      "name": "Mesh1 Group1 Swim1 Model_1",
      "primitives": [
        {
          "attributes": {
            "POSITION": 0,
            "NORMAL": 1,
            "TEXCOORD_0": 2
          },
          "indices": 3,
          "material": 0,
          "mode": 4
        },
        {
          "attributes": {
            "POSITION": 0,
            "NORMAL": 1,
            "TEXCOORD_0": 2
          },
          "indices": 4,
          "material": 1,
          "mode": 4
        }
      ]
    },
    {
      "name": "Mesh3 Group2 Swim1 Model_1",
      "primitives": [
        {
          "attributes": {
            "POSITION": 5,
            "NORMAL": 6,
            "TEXCOORD_0": 7
          },
          "indices": 8,
          "material": 1,
          "mode": 4
        },
        {
          "attributes": {
            "POSITION": 5,
            "NORMAL": 6,
            "TEXCOORD_0": 7
          },
          "indices": 9,
          "material": 0,
          "mode": 4
        }
      ]
    },
    {
      "name": "Mesh9 Group3 Swim1 Model_1",
      "primitives": [
        {
          "attributes": {
            "POSITION": 10,
            "NORMAL": 11,
            "TEXCOORD_0": 12
          },
          "indices": 13,
          "material": 0,
          "mode": 4
        },
        {
          "attributes": {
            "POSITION": 10,
            "NORMAL": 11,
            "TEXCOORD_0": 12
          },
          "indices": 14,
          "material": 1,
          "mode": 4
        }
      ]
    },
    {
      "name": "Mesh11 Group4 Swim1 Model_1",
      "primitives": [
        {
          "attributes": {
            "POSITION": 15,
            "NORMAL": 16,
            "TEXCOORD_0": 17
          },
          "indices": 18,
          "material": 0,
          "mode": 4
        }
      ]
    },
    {
      "name": "Mesh13 Group5 Swim1 Model_1",
      "primitives": [
        {
          "attributes": {
            "POSITION": 19,
            "NORMAL": 20,
            "TEXCOORD_0": 21
          },
          "indices": 22,
          "material": 0,
          "mode": 4
        },
        {
          "attributes": {
            "POSITION": 19,
            "NORMAL": 20,
            "TEXCOORD_0": 21
          },
          "indices": 23,
          "material": 1,
          "mode": 4
        }
      ]
    },
    {
      "name": "Mesh15 Group6 Swim1 Model_1",
      "primitives": [
        {
          "attributes": {
            "POSITION": 24,
            "NORMAL": 25,
            "TEXCOORD_0": 26
          },
          "indices": 27,
          "material": 1,
          "mode": 4
        },
        {
          "attributes": {
            "POSITION": 24,
            "NORMAL": 25,
            "TEXCOORD_0": 26
          },
          "indices": 28,
          "material": 0,
          "mode": 4
        }
      ]
    },
    {
      "name": "Mesh17 Group7 Swim1 Model_1",
      "primitives": [
        {
          "attributes": {
            "POSITION": 29,
            "NORMAL": 30,
            "TEXCOORD_0": 31
          },
          "indices": 32,
          "material": 1,
          "mode": 4
        },
        {
          "attributes": {
            "POSITION": 29,
            "NORMAL": 30,
            "TEXCOORD_0": 31
          },
          "indices": 33,
          "material": 0,
          "mode": 4
        }
      ]
    }
  ],
  "nodes": [
    {
      "name": "Mesh1 Group1 Swim1 Model",
      "mesh": 0
    },
    {
      "name": "Mesh3 Group2 Swim1 Model",
      "mesh": 1
    },
    {
      "name": "Mesh9 Group3 Swim1 Model",
      "mesh": 2
    },
    {
      "name": "Mesh11 Group4 Swim1 Model",
      "mesh": 3
    },
    {
      "name": "Mesh13 Group5 Swim1 Model",
      "mesh": 4
    },
    {
      "name": "Mesh15 Group6 Swim1 Model",
      "mesh": 5
    },
    {
      "name": "Mesh17 Group7 Swim1 Model",
      "mesh": 6
    }
  ],
  "scene": 0,
  "scenes": [
    {
      "nodes": [
        0,
        1,
        2,
        3,
        4,
        5,
        6
      ]
    }
  ]
}
