{
  "accessors": [
    {
      "name": "Mesh1 skpdkbCrd1 Paddle1 Model_1_positions",
      "componentType": 5126,
      "count": 6472,
      "min": [
        -720.3489990234375,
        7.105429898699844e-15,
        -230.57899475097656
      ],
      "max": [
        846.4340209960938,
        86.39559936523438,
        203.3800048828125
      ],
      "type": "VEC3",
      "bufferView": 0,
      "byteOffset": 0
    },
    {
      "name": "Mesh1 skpdkbCrd1 Paddle1 Model_1_normals",
      "componentType": 5126,
      "count": 6472,
      "min": [
        -0.9958770275115967,
        -1,
        -0.9999619722366333
      ],
      "max": [
        0.9958770275115967,
        1,
        0.9999619722366333
      ],
      "type": "VEC3",
      "bufferView": 0,
      "byteOffset": 85488
    },
    {
      "name": "Mesh1 skpdkbCrd1 Paddle1 Model_1_texcoords",
      "componentType": 5126,
      "count": 6472,
      "min": [
        -154.6320037841797,
        -157.35800170898438
      ],
      "max": [
        154.40899658203125,
        160.697998046875
      ],
      "type": "VEC2",
      "bufferView": 1,
      "byteOffset": 0
    },
    {
      "name": "Mesh1 skpdkbCrd1 Paddle1 Model_1_0_indices",
      "componentType": 5123,
      "count": 7032,
      "min": [
        0
      ],
      "max": [
        6471
      ],
      "type": "SCALAR",
      "bufferView": 2,
      "byteOffset": 0
    },
    {
      "name": "Mesh3 skpU5oj6d1 Paddle1 Model_1_positions",
      "componentType": 5126,
      "count": 228,
      "min": [
        -291.0610046386719,
        30.043899536132812,
        -190.3350067138672
      ],
      "max": [
        -195.28900146484375,
        59.53350067138672,
        582.864990234375
      ],
      "type": "VEC3",
      "bufferView": 0,
      "byteOffset": 77664
    },
    {
      "name": "Mesh3 skpU5oj6d1 Paddle1 Model_1_normals",
      "componentType": 5126,
      "count": 228,
      "min": [
        -0.9961950182914734,
        -0.9963579773902893,
        -0.9961950182914734
      ],
      "max": [
        0.9961950182914734,
        0.9963579773902893,
        0.9961950182914734
      ],
      "type": "VEC3",
      "bufferView": 0,
      "byteOffset": 163152
    },
    {
      "name": "Mesh3 skpU5oj6d1 Paddle1 Model_1_texcoords",
      "componentType": 5126,
      "count": 228,
      "min": [
        -482.9440002441406,
        -75.5261001586914
      ],
      "max": [
        482.9440002441406,
        75.99669647216797
      ],
      "type": "VEC2",
      "bufferView": 1,
      "byteOffset": 51776
    },
    {
      "name": "Mesh3 skpU5oj6d1 Paddle1 Model_1_0_indices",
      "componentType": 5123,
      "count": 432,
      "min": [
        0
      ],
      "max": [
        227
      ],
      "type": "SCALAR",
      "bufferView": 2,
      "byteOffset": 14064
    },
    {
      "name": "Mesh4 skpU5oj6d1 Paddle1 Model_1_positions",
      "componentType": 5126,
      "count": 424,
      "min": [
        -286.13299560546875,
        36.51060104370117,
        -529.364990234375
      ],
      "max": [
        -94.36430358886719,
        50.66939926147461,
        552.177001953125
      ],
      "type": "VEC3",
      "bufferView": 0,
      "byteOffset": 80400
    },
    {
      "name": "Mesh4 skpU5oj6d1 Paddle1 Model_1_normals",
      "componentType": 5126,
      "count": 424,
      "min": [
        -0.9998360276222229,
        -1,
        -0.9997249841690063
      ],
      "max": [
        0.9998360276222229,
        1,
        0.9997249841690063
      ],
      "type": "VEC3",
      "bufferView": 0,
      "byteOffset": 165888
    },
    {
      "name": "Mesh4 skpU5oj6d1 Paddle1 Model_1_texcoords",
      "componentType": 5126,
      "count": 424,
      "min": [
        -578.7899780273438,
        -627.85400390625
      ],
      "max": [
        599.6710205078125,
        629.7670288085938
      ],
      "type": "VEC2",
      "bufferView": 1,
      "byteOffset": 53600
    },
    {
      "name": "Mesh4 skpU5oj6d1 Paddle1 Model_1_0_indices",
      "componentType": 5123,
      "count": 324,
      "min": [
        0
      ],
      "max": [
        413
      ],
      "type": "SCALAR",
      "bufferView": 2,
      "byteOffset": 14928
    },
    {
      "name": "Mesh4 skpU5oj6d1 Paddle1 Model_1_1_indices",
      "componentType": 5123,
      "count": 324,
      "min": [
        4
      ],
      "max": [
        423
      ],
      "type": "SCALAR",
      "bufferView": 2,
      "byteOffset": 15576
    }
  ],
  "asset": {
    "generator": "obj2gltf",
    "version": "2.0"
  },
  "buffers": [
    {
      "name": "Paddle",
      "byteLength": 244192,
      "uri": "data:application/octet-stream;base64,"
    }
  ],
  "bufferViews": [
    {
      "name": "bufferView_0",
      "buffer": 0,
      "byteLength": 170976,
      "byteOffset": 0,
      "byteStride": 12,
      "target": 34962
    },
    {
      "name": "bufferView_1",
      "buffer": 0,
      "byteLength": 56992,
      "byteOffset": 170976,
      "byteStride": 8,
      "target": 34962
    },
    {
      "name": "bufferView_2",
      "buffer": 0,
      "byteLength": 16224,
      "byteOffset": 227968,
      "target": 34963
    }
  ],
  "materials": [
    {
      "name": "_7",
      "pbrMetallicRoughness": {
        "baseColorFactor": [
          1,
          1,
          1,
          1
        ],
        "metallicFactor": 0,
        "roughnessFactor": 1
      },
      "emissiveFactor": [
        0,
        0,
        0
      ],
      "alphaMode": "OPAQUE",
      "doubleSided": false
    },
    {
      "name": "_8",
      "pbrMetallicRoughness": {
        "baseColorFactor": [
          0.227451,
          0.227451,
          0.227451,
          1
        ],
        "metallicFactor": 0,
        "roughnessFactor": 1
      },
      "emissiveFactor": [
        0,
        0,
        0
      ],
      "alphaMode": "OPAQUE",
      "doubleSided": false
    },
    {
      "name": "_auto_29",
      "pbrMetallicRoughness": {
        "baseColorFactor": [
          1,
          0.960784,
          0.015686,
          1
        ],
        "metallicFactor": 0,
        "roughnessFactor": 1
      },
      "emissiveFactor": [
        0,
        0,
        0
      ],
      "alphaMode": "OPAQUE",
      "doubleSided": false
    },
    {
      "name": "_37",
      "pbrMetallicRoughness": {
        "baseColorFactor": [
          1,
          1,
          0.6,
          1
        ],
        "metallicFactor": 0,
        "roughnessFactor": 1
      },
      "emissiveFactor": [
        0,
        0,
        0
      ],
      "alphaMode": "OPAQUE",
      "doubleSided": false
    }
  ],
  "meshes": [
    {
      "name": "Mesh1 skpdkbCrd1 Paddle1 Model_1",
      "primitives": [
        {
          "attributes": {
            "POSITION": 0,
            "NORMAL": 1,
            "TEXCOORD_0": 2
          },
          "indices": 3,
          "material": 0,
          "mode": 4
        }
      ]
    },
    {
      "name": "Mesh3 skpU5oj6d1 Paddle1 Model_1",
      "primitives": [
        {
          "attributes": {
            "POSITION": 4,
            "NORMAL": 5,
            "TEXCOORD_0": 6
          },
          "indices": 7,
          "material": 1,
          "mode": 4
        }
      ]
    },
    {
      "name": "Mesh4 skpU5oj6d1 Paddle1 Model_1",
      "primitives": [
        {
          "attributes": {
            "POSITION": 8,
            "NORMAL": 9,
            "TEXCOORD_0": 10
          },
          "indices": 11,
          "material": 2,
          "mode": 4
        },
        {
          "attributes": {
            "POSITION": 8,
            "NORMAL": 9,
            "TEXCOORD_0": 10
          },
          "indices": 12,
          "material": 3,
          "mode": 4
        }
      ]
    }
  ],
  "nodes": [
    {
      "name": "Mesh1 skpdkbCrd1 Paddle1 Model",
      "mesh": 0
    },
    {
      "name": "Mesh3 skpU5oj6d1 Paddle1 Model",
      "mesh": 1
    },
    {
      "name": "Mesh4 skpU5oj6d1 Paddle1 Model",
      "mesh": 2
    }
  ],
  "scene": 0,
  "scenes": [
    {
      "nodes": [
        0,
        1,
        2
      ]
    }
  ]
}
