{
  "accessors": [
    {
      "name": "Mesh1 Group1 PR1 Model_1_positions",
      "componentType": 5126,
      "count": 278,
      "min": [
        103.36599731445312,
        480.26800537109375,
        507.156005859375
      ],
      "max": [
        240.57200622558594,
        588.822998046875,
        627.7830200195312
      ],
      "type": "VEC3",
      "bufferView": 0,
      "byteOffset": 0
    },
    {
      "name": "Mesh1 Group1 PR1 Model_1_normals",
      "componentType": 5126,
      "count": 278,
      "min": [
        -0.7010210156440735,
        -1,
        -0.7745329737663269
      ],
      "max": [
        0.7010210156440735,
        1,
        0.7745329737663269
      ],
      "type": "VEC3",
      "bufferView": 0,
      "byteOffset": 22344
    },
    {
      "name": "Mesh1 Group1 PR1 Model_1_texcoords",
      "componentType": 5126,
      "count": 278,
      "min": [
        -120.96700286865234,
        -123.53500366210938
      ],
      "max": [
        121.81999969482422,
        1
      ],
      "type": "VEC2",
      "bufferView": 1,
      "byteOffset": 0
    },
    {
      "name": "Mesh1 Group1 PR1 Model_1_0_indices",
      "componentType": 5123,
      "count": 516,
      "min": [
        0
      ],
      "max": [
        277
      ],
      "type": "SCALAR",
      "bufferView": 2,
      "byteOffset": 0
    },
    {
      "name": "Mesh4 PR1 Model_1_positions",
      "componentType": 5126,
      "count": 40,
      "min": [
        -405.25299072265625,
        975.7529907226562,
        221.27099609375
      ],
      "max": [
        13.126299858093262,
        1316.9599609375,
        611.8250122070312
      ],
      "type": "VEC3",
      "bufferView": 0,
      "byteOffset": 3336
    },
    {
      "name": "Mesh4 PR1 Model_1_normals",
      "componentType": 5126,
      "count": 40,
      "min": [
        -0.9284859895706177,
        0,
        -0.9284859895706177
      ],
      "max": [
        0.9284859895706177,
        0,
        0.9284859895706177
      ],
      "type": "VEC3",
      "bufferView": 0,
      "byteOffset": 25680
    },
    {
      "name": "Mesh4 PR1 Model_1_texcoords",
      "componentType": 5126,
      "count": 40,
      "min": [
        -1287.449951171875,
        -1315.9599609375
      ],
      "max": [
        1287.449951171875,
        -974.7529907226562
      ],
      "type": "VEC2",
      "bufferView": 1,
      "byteOffset": 2224
    },
    {
      "name": "Mesh4 PR1 Model_1_0_indices",
      "componentType": 5123,
      "count": 21,
      "min": [
        0
      ],
      "max": [
        17
      ],
      "type": "SCALAR",
      "bufferView": 2,
      "byteOffset": 1032
    },
    {
      "name": "Mesh4 PR1 Model_1_1_indices",
      "componentType": 5123,
      "count": 21,
      "min": [
        4
      ],
      "max": [
        39
      ],
      "type": "SCALAR",
      "bufferView": 2,
      "byteOffset": 1076
    },
    {
      "name": "Mesh4 PR1 Model_1_2_indices",
      "componentType": 5123,
      "count": 15,
      "min": [
        21
      ],
      "max": [
        37
      ],
      "type": "SCALAR",
      "bufferView": 2,
      "byteOffset": 1120
    },
    {
      "name": "Mesh4 PR1 Model_1_3_indices",
      "componentType": 5123,
      "count": 15,
      "min": [
        25
      ],
      "max": [
        38
      ],
      "type": "SCALAR",
      "bufferView": 2,
      "byteOffset": 1152
    },
    {
      "name": "Mesh5 PR1 Model_1_positions",
      "componentType": 5126,
      "count": 1520,
      "min": [
        -1168.1700439453125,
        0,
        -1096.530029296875
      ],
      "max": [
        1231.0799560546875,
        1214.469970703125,
        981.1530151367188
      ],
      "type": "VEC3",
      "bufferView": 0,
      "byteOffset": 3816
    },
    {
      "name": "Mesh5 PR1 Model_1_normals",
      "componentType": 5126,
      "count": 1520,
      "min": [
        -0.9789310097694397,
        -1,
        -0.9964069724082947
      ],
      "max": [
        0.9789310097694397,
        1,
        0.9964069724082947
      ],
      "type": "VEC3",
      "bufferView": 0,
      "byteOffset": 26160
    },
    {
      "name": "Mesh5 PR1 Model_1_texcoords",
      "componentType": 5126,
      "count": 1520,
      "min": [
        -2514.25,
        -2076.68994140625
      ],
      "max": [
        2514.25,
        1999.550048828125
      ],
      "type": "VEC2",
      "bufferView": 1,
      "byteOffset": 2544
    },
    {
      "name": "Mesh5 PR1 Model_1_0_indices",
      "componentType": 5123,
      "count": 39,
      "min": [
        239
      ],
      "max": [
        969
      ],
      "type": "SCALAR",
      "bufferView": 2,
      "byteOffset": 1184
    },
    {
      "name": "Mesh5 PR1 Model_1_1_indices",
      "componentType": 5123,
      "count": 357,
      "min": [
        0
      ],
      "max": [
        724
      ],
      "type": "SCALAR",
      "bufferView": 2,
      "byteOffset": 1264
    },
    {
      "name": "Mesh5 PR1 Model_1_2_indices",
      "componentType": 5123,
      "count": 1779,
      "min": [
        35
      ],
      "max": [
        1518
      ],
      "type": "SCALAR",
      "bufferView": 2,
      "byteOffset": 1980
    },
    {
      "name": "Mesh5 PR1 Model_1_3_indices",
      "componentType": 5123,
      "count": 24,
      "min": [
        94
      ],
      "max": [
        1464
      ],
      "type": "SCALAR",
      "bufferView": 2,
      "byteOffset": 5540
    },
    {
      "name": "Mesh5 PR1 Model_1_4_indices",
      "componentType": 5123,
      "count": 1518,
      "min": [
        106
      ],
      "max": [
        1519
      ],
      "type": "SCALAR",
      "bufferView": 2,
      "byteOffset": 5588
    },
    {
      "name": "Mesh5 PR1 Model_1_5_indices",
      "componentType": 5123,
      "count": 15,
      "min": [
        266
      ],
      "max": [
        292
      ],
      "type": "SCALAR",
      "bufferView": 2,
      "byteOffset": 8624
    },
    {
      "name": "Mesh5 PR1 Model_1_6_indices",
      "componentType": 5123,
      "count": 498,
      "min": [
        311
      ],
      "max": [
        919
      ],
      "type": "SCALAR",
      "bufferView": 2,
      "byteOffset": 8656
    },
    {
      "name": "Mesh5 PR1 Model_1_7_indices",
      "componentType": 5123,
      "count": 516,
      "min": [
        957
      ],
      "max": [
        1506
      ],
      "type": "SCALAR",
      "bufferView": 2,
      "byteOffset": 9652
    },
    {
      "name": "Mesh6 PR1 Model_1_positions",
      "componentType": 5126,
      "count": 24,
      "min": [
        -425.1300048828125,
        1303.050048828125,
        199.34500122070312
      ],
      "max": [
        37.260501861572266,
        1523.8900146484375,
        647.5089721679688
      ],
      "type": "VEC3",
      "bufferView": 0,
      "byteOffset": 22056
    },
    {
      "name": "Mesh6 PR1 Model_1_normals",
      "componentType": 5126,
      "count": 24,
      "min": [
        -0.7173020243644714,
        -0.6349539756774902,
        -0.7377719879150391
      ],
      "max": [
        0.7173020243644714,
        0.6349539756774902,
        0.7377719879150391
      ],
      "type": "VEC3",
      "bufferView": 0,
      "byteOffset": 44400
    },
    {
      "name": "Mesh6 PR1 Model_1_texcoords",
      "componentType": 5126,
      "count": 24,
      "min": [
        -1300.3199462890625,
        -1886.6700439453125
      ],
      "max": [
        1300.3199462890625,
        -180.0290069580078
      ],
      "type": "VEC2",
      "bufferView": 1,
      "byteOffset": 14704
    },
    {
      "name": "Mesh6 PR1 Model_1_0_indices",
      "componentType": 5123,
      "count": 12,
      "min": [
        0
      ],
      "max": [
        17
      ],
      "type": "SCALAR",
      "bufferView": 2,
      "byteOffset": 10684
    },
    {
      "name": "Mesh6 PR1 Model_1_1_indices",
      "componentType": 5123,
      "count": 12,
      "min": [
        3
      ],
      "max": [
        23
      ],
      "type": "SCALAR",
      "bufferView": 2,
      "byteOffset": 10708
    }
  ],
  "asset": {
    "generator": "obj2gltf",
    "version": "2.0"
  },
  "buffers": [
    {
      "name": "Porch_HotChoco",
      "byteLength": 70316,
      "uri": "data:application/octet-stream;base64,"
    }
  ],
  "bufferViews": [
    {
      "name": "bufferView_0",
      "buffer": 0,
      "byteLength": 44688,
      "byteOffset": 0,
      "byteStride": 12,
      "target": 34962
    },
    {
      "name": "bufferView_1",
      "buffer": 0,
      "byteLength": 14896,
      "byteOffset": 44688,
      "byteStride": 8,
      "target": 34962
    },
    {
      "name": "bufferView_2",
      "buffer": 0,
      "byteLength": 10732,
      "byteOffset": 59584,
      "target": 34963
    }
  ],
  "materials": [
    {
      "name": "Color_D07",
      "pbrMetallicRoughness": {
        "baseColorFactor": [
          0.6,
          0.447059,
          0,
          1
        ],
        "metallicFactor": 0,
        "roughnessFactor": 1
      },
      "emissiveFactor": [
        0,
        0,
        0
      ],
      "alphaMode": "OPAQUE",
      "doubleSided": false
    },
    {
      "name": "Color_C07",
      "pbrMetallicRoughness": {
        "baseColorFactor": [
          0.6,
          0.298039,
          0,
          1
        ],
        "metallicFactor": 0,
        "roughnessFactor": 1
      },
      "emissiveFactor": [
        0,
        0,
        0
      ],
      "alphaMode": "OPAQUE",
      "doubleSided": false
    },
    {
      "name": "BackColor",
      "pbrMetallicRoughness": {
        "baseColorFactor": [
          0.643137,
          0.698039,
          0.733333,
          1
        ],
        "metallicFactor": 0,
        "roughnessFactor": 1
      },
      "emissiveFactor": [
        0,
        0,
        0
      ],
      "alphaMode": "OPAQUE",
      "doubleSided": false
    },
    {
      "name": "Color_C08",
      "pbrMetallicRoughness": {
        "baseColorFactor": [
          0.4,
          0.2,
          0,
          1
        ],
        "metallicFactor": 0,
        "roughnessFactor": 1
      },
      "emissiveFactor": [
        0,
        0,
        0
      ],
      "alphaMode": "OPAQUE",
      "doubleSided": false
    },
    {
      "name": "TAN",
      "pbrMetallicRoughness": {
        "baseColorFactor": [
          1,
          0.898039,
          0.8,
          1
        ],
        "metallicFactor": 0,
        "roughnessFactor": 1
      },
      "emissiveFactor": [
        0,
        0,
        0
      ],
      "alphaMode": "OPAQUE",
      "doubleSided": false
    },
    {
      "name": "_2",
      "pbrMetallicRoughness": {
        "baseColorFactor": [
          0.117647,
          0.117647,
          0.117647,
          1
        ],
        "metallicFactor": 0,
        "roughnessFactor": 1
      },
      "emissiveFactor": [
        0,
        0,
        0
      ],
      "alphaMode": "OPAQUE",
      "doubleSided": false
    },
    {
      "name": "Stacy_Hair",
      "pbrMetallicRoughness": {
        "baseColorFactor": [
          0.141176,
          0.07451,
          0.027451,
          1
        ],
        "metallicFactor": 0,
        "roughnessFactor": 1
      },
      "emissiveFactor": [
        0,
        0,
        0
      ],
      "alphaMode": "OPAQUE",
      "doubleSided": false
    },
    {
      "name": "FrontColor",
      "pbrMetallicRoughness": {
        "baseColorFactor": [
          1,
          1,
          1,
          1
        ],
        "metallicFactor": 0,
        "roughnessFactor": 1
      },
      "emissiveFactor": [
        0,
        0,
        0
      ],
      "alphaMode": "OPAQUE",
      "doubleSided": false
    },
    {
      "name": "GREEN",
      "pbrMetallicRoughness": {
        "baseColorFactor": [
          0.45098,
          0.647059,
          0.498039,
          1
        ],
        "metallicFactor": 0,
        "roughnessFactor": 1
      },
      "emissiveFactor": [
        0,
        0,
        0
      ],
      "alphaMode": "OPAQUE",
      "doubleSided": false
    },
    {
      "name": "RED",
      "pbrMetallicRoughness": {
        "baseColorFactor": [
          0.662745,
          0.278431,
          0.117647,
          1
        ],
        "metallicFactor": 0,
        "roughnessFactor": 1
      },
      "emissiveFactor": [
        0,
        0,
        0
      ],
      "alphaMode": "OPAQUE",
      "doubleSided": false
    }
  ],
  "meshes": [
    {
      "name": "Mesh1 Group1 PR1 Model_1",
      "primitives": [
        {
          "attributes": {
            "POSITION": 0,
            "NORMAL": 1,
            "TEXCOORD_0": 2
          },
          "indices": 3,
          "material": 0,
          "mode": 4
        }
      ]
    },
    {
      "name": "Mesh4 PR1 Model_1",
      "primitives": [
        {
          "attributes": {
            "POSITION": 4,
            "NORMAL": 5,
            "TEXCOORD_0": 6
          },
          "indices": 7,
          "material": 1,
          "mode": 4
        },
        {
          "attributes": {
            "POSITION": 4,
            "NORMAL": 5,
            "TEXCOORD_0": 6
          },
          "indices": 8,
          "material": 2,
          "mode": 4
        },
        {
          "attributes": {
            "POSITION": 4,
            "NORMAL": 5,
            "TEXCOORD_0": 6
          },
          "indices": 9,
          "material": 3,
          "mode": 4
        },
        {
          "attributes": {
            "POSITION": 4,
            "NORMAL": 5,
            "TEXCOORD_0": 6
          },
          "indices": 10,
          "material": 4,
          "mode": 4
        }
      ]
    },
    {
      "name": "Mesh5 PR1 Model_1",
      "primitives": [
        {
          "attributes": {
            "POSITION": 11,
            "NORMAL": 12,
            "TEXCOORD_0": 13
          },
          "indices": 14,
          "material": 2,
          "mode": 4
        },
        {
          "attributes": {
            "POSITION": 11,
            "NORMAL": 12,
            "TEXCOORD_0": 13
          },
          "indices": 15,
          "material": 5,
          "mode": 4
        },
        {
          "attributes": {
            "POSITION": 11,
            "NORMAL": 12,
            "TEXCOORD_0": 13
          },
          "indices": 16,
          "material": 3,
          "mode": 4
        },
        {
          "attributes": {
            "POSITION": 11,
            "NORMAL": 12,
            "TEXCOORD_0": 13
          },
          "indices": 17,
          "material": 6,
          "mode": 4
        },
        {
          "attributes": {
            "POSITION": 11,
            "NORMAL": 12,
            "TEXCOORD_0": 13
          },
          "indices": 18,
          "material": 4,
          "mode": 4
        },
        {
          "attributes": {
            "POSITION": 11,
            "NORMAL": 12,
            "TEXCOORD_0": 13
          },
          "indices": 19,
          "material": 7,
          "mode": 4
        },
        {
          "attributes": {
            "POSITION": 11,
            "NORMAL": 12,
            "TEXCOORD_0": 13
          },
          "indices": 20,
          "material": 8,
          "mode": 4
        },
        {
          "attributes": {
            "POSITION": 11,
            "NORMAL": 12,
            "TEXCOORD_0": 13
          },
          "indices": 21,
          "material": 0,
          "mode": 4
        }
      ]
    },
    {
      "name": "Mesh6 PR1 Model_1",
      "primitives": [
        {
          "attributes": {
            "POSITION": 22,
            "NORMAL": 23,
            "TEXCOORD_0": 24
          },
          "indices": 25,
          "material": 9,
          "mode": 4
        },
        {
          "attributes": {
            "POSITION": 22,
            "NORMAL": 23,
            "TEXCOORD_0": 24
          },
          "indices": 26,
          "material": 5,
          "mode": 4
        }
      ]
    }
  ],
  "nodes": [
    {
      "name": "Mesh1 Group1 PR1 Model",
      "mesh": 0
    },
    {
      "name": "Mesh4 PR1 Model",
      "mesh": 1
    },
    {
      "name": "Mesh5 PR1 Model",
      "mesh": 2
    },
    {
      "name": "Mesh6 PR1 Model",
      "mesh": 3
    }
  ],
  "scene": 0,
  "scenes": [
    {
      "nodes": [
        0,
        1,
        2,
        3
      ]
    }
  ]
}
