{
  "accessors": [
    {
      "name": "Mesh1 Group1 Pool1 Model_1_positions",
      "componentType": 5126,
      "count": 88,
      "min": [
        863.0449829101562,
        396.81201171875,
        -1185.8199462890625
      ],
      "max": [
        1280.469970703125,
        827.989013671875,
        -948.6950073242188
      ],
      "type": "VEC3",
      "bufferView": 0,
      "byteOffset": 0
    },
    {
      "name": "Mesh1 Group1 Pool1 Model_1_normals",
      "componentType": 5126,
      "count": 88,
      "min": [
        -0.493941992521286,
        -1.2059700407960065e-15,
        -0.8694949746131897
      ],
      "max": [
        0.493941992521286,
        1.2059700407960065e-15,
        0.8694949746131897
      ],
      "type": "VEC3",
      "bufferView": 0,
      "byteOffset": 16848
    },
    {
      "name": "Mesh1 Group1 Pool1 Model_1_texcoords",
      "componentType": 5126,
      "count": 88,
      "min": [
        0,
        -26.533199310302734
      ],
      "max": [
        34.62799835205078,
        1
      ],
      "type": "VEC2",
      "bufferView": 1,
      "byteOffset": 0
    },
    {
      "name": "Mesh1 Group1 Pool1 Model_1_0_indices",
      "componentType": 5123,
      "count": 252,
      "min": [
        0
      ],
      "max": [
        87
      ],
      "type": "SCALAR",
      "bufferView": 2,
      "byteOffset": 0
    },
    {
      "name": "Mesh3 Group2 Pool1 Model_1_positions",
      "componentType": 5126,
      "count": 88,
      "min": [
        1316.510009765625,
        396.4800109863281,
        -907.14501953125
      ],
      "max": [
        1574.8299560546875,
        825.427001953125,
        -292.6390075683594
      ],
      "type": "VEC3",
      "bufferView": 0,
      "byteOffset": 1056
    },
    {
      "name": "Mesh3 Group2 Pool1 Model_1_normals",
      "componentType": 5126,
      "count": 88,
      "min": [
        -0.9218630194664001,
        -1.0989299578558886e-15,
        -0.38751599192619324
      ],
      "max": [
        0.9218630194664001,
        1.0989299578558886e-15,
        0.38751599192619324
      ],
      "type": "VEC3",
      "bufferView": 0,
      "byteOffset": 17904
    },
    {
      "name": "Mesh3 Group2 Pool1 Model_1_texcoords",
      "componentType": 5126,
      "count": 88,
      "min": [
        0,
        -26.533199310302734
      ],
      "max": [
        34.62799835205078,
        1
      ],
      "type": "VEC2",
      "bufferView": 1,
      "byteOffset": 704
    },
    {
      "name": "Mesh3 Group2 Pool1 Model_1_0_indices",
      "componentType": 5123,
      "count": 252,
      "min": [
        0
      ],
      "max": [
        87
      ],
      "type": "SCALAR",
      "bufferView": 2,
      "byteOffset": 504
    },
    {
      "name": "Mesh5 Group3 Pool1 Model_1_positions",
      "componentType": 5126,
      "count": 88,
      "min": [
        222.85299682617188,
        396.81201171875,
        -970.051025390625
      ],
      "max": [
        341.0880126953125,
        830.0999755859375,
        -485.0320129394531
      ],
      "type": "VEC3",
      "bufferView": 0,
      "byteOffset": 2112
    },
    {
      "name": "Mesh5 Group3 Pool1 Model_1_normals",
      "componentType": 5126,
      "count": 88,
      "min": [
        -0.9715489745140076,
        -6.241399858930346e-16,
        -0.23683799803256989
      ],
      "max": [
        0.9715489745140076,
        6.241399858930346e-16,
        0.23683799803256989
      ],
      "type": "VEC3",
      "bufferView": 0,
      "byteOffset": 18960
    },
    {
      "name": "Mesh5 Group3 Pool1 Model_1_texcoords",
      "componentType": 5126,
      "count": 88,
      "min": [
        0,
        -26.533199310302734
      ],
      "max": [
        34.62799835205078,
        1
      ],
      "type": "VEC2",
      "bufferView": 1,
      "byteOffset": 1408
    },
    {
      "name": "Mesh5 Group3 Pool1 Model_1_0_indices",
      "componentType": 5123,
      "count": 252,
      "min": [
        0
      ],
      "max": [
        87
      ],
      "type": "SCALAR",
      "bufferView": 2,
      "byteOffset": 1008
    },
    {
      "name": "Mesh7 Pool1 Model_1_positions",
      "componentType": 5126,
      "count": 1140,
      "min": [
        -1536.699951171875,
        0,
        -1204.8299560546875
      ],
      "max": [
        1608.0699462890625,
        1139.68994140625,
        930.072021484375
      ],
      "type": "VEC3",
      "bufferView": 0,
      "byteOffset": 3168
    },
    {
      "name": "Mesh7 Pool1 Model_1_normals",
      "componentType": 5126,
      "count": 1140,
      "min": [
        -0.9903349876403809,
        -1,
        -0.9226899743080139
      ],
      "max": [
        0.9903349876403809,
        1,
        0.9226899743080139
      ],
      "type": "VEC3",
      "bufferView": 0,
      "byteOffset": 20016
    },
    {
      "name": "Mesh7 Pool1 Model_1_texcoords",
      "componentType": 5126,
      "count": 1140,
      "min": [
        -51.14179992675781,
        -36.6702995300293
      ],
      "max": [
        51.141998291015625,
        31.45800018310547
      ],
      "type": "VEC2",
      "bufferView": 1,
      "byteOffset": 2112
    },
    {
      "name": "Mesh7 Pool1 Model_1_0_indices",
      "componentType": 5123,
      "count": 3096,
      "min": [
        0
      ],
      "max": [
        1139
      ],
      "type": "SCALAR",
      "bufferView": 2,
      "byteOffset": 1512
    },
    {
      "name": "Mesh7 Pool1 Model_1_1_indices",
      "componentType": 5123,
      "count": 24,
      "min": [
        360
      ],
      "max": [
        905
      ],
      "type": "SCALAR",
      "bufferView": 2,
      "byteOffset": 7704
    },
    {
      "name": "Mesh7 Pool1 Model_1_2_indices",
      "componentType": 5123,
      "count": 18,
      "min": [
        540
      ],
      "max": [
        559
      ],
      "type": "SCALAR",
      "bufferView": 2,
      "byteOffset": 7752
    },
    {
      "name": "Mesh7 Pool1 Model_1_3_indices",
      "componentType": 5123,
      "count": 30,
      "min": [
        833
      ],
      "max": [
        891
      ],
      "type": "SCALAR",
      "bufferView": 2,
      "byteOffset": 7788
    },
    {
      "name": "Mesh7 Pool1 Model_1_4_indices",
      "componentType": 5123,
      "count": 75,
      "min": [
        922
      ],
      "max": [
        1011
      ],
      "type": "SCALAR",
      "bufferView": 2,
      "byteOffset": 7848
    },
    {
      "name": "Mesh7 Pool1 Model_1_5_indices",
      "componentType": 5123,
      "count": 6,
      "min": [
        986
      ],
      "max": [
        1005
      ],
      "type": "SCALAR",
      "bufferView": 2,
      "byteOffset": 8000
    },
    {
      "name": "Mesh7 Pool1 Model_1_6_indices",
      "componentType": 5123,
      "count": 3,
      "min": [
        989
      ],
      "max": [
        991
      ],
      "type": "SCALAR",
      "bufferView": 2,
      "byteOffset": 8012
    }
  ],
  "asset": {
    "generator": "obj2gltf",
    "version": "2.0"
  },
  "buffers": [
    {
      "name": "IndoorPool",
      "byteLength": 52948,
      "uri": "data:application/octet-stream;base64,"
    }
  ],
  "bufferViews": [
    {
      "name": "bufferView_0",
      "buffer": 0,
      "byteLength": 33696,
      "byteOffset": 0,
      "byteStride": 12,
      "target": 34962
    },
    {
      "name": "bufferView_1",
      "buffer": 0,
      "byteLength": 11232,
      "byteOffset": 33696,
      "byteStride": 8,
      "target": 34962
    },
    {
      "name": "bufferView_2",
      "buffer": 0,
      "byteLength": 8020,
      "byteOffset": 44928,
      "target": 34963
    }
  ],
  "materials": [
    {
      "name": "Color_C08",
      "pbrMetallicRoughness": {
        "baseColorFactor": [
          0.4,
          0.2,
          0,
          1
        ],
        "metallicFactor": 0,
        "roughnessFactor": 1
      },
      "emissiveFactor": [
        0,
        0,
        0
      ],
      "alphaMode": "OPAQUE",
      "doubleSided": false
    },
    {
      "name": "_24",
      "pbrMetallicRoughness": {
        "baseColorFactor": [
          0.384314,
          0.52549,
          0.521569,
          1
        ],
        "metallicFactor": 0,
        "roughnessFactor": 1
      },
      "emissiveFactor": [
        0,
        0,
        0
      ],
      "alphaMode": "OPAQUE",
      "doubleSided": false
    },
    {
      "name": "_23",
      "pbrMetallicRoughness": {
        "baseColorFactor": [
          0.509804,
          0.862745,
          0.996078,
          1
        ],
        "metallicFactor": 0,
        "roughnessFactor": 1
      },
      "emissiveFactor": [
        0,
        0,
        0
      ],
      "alphaMode": "OPAQUE",
      "doubleSided": false
    },
    {
      "name": "Color_A07",
      "pbrMetallicRoughness": {
        "baseColorFactor": [
          0.6,
          0,
          0,
          1
        ],
        "metallicFactor": 0,
        "roughnessFactor": 1
      },
      "emissiveFactor": [
        0,
        0,
        0
      ],
      "alphaMode": "OPAQUE",
      "doubleSided": false
    },
    {
      "name": "Color_M00",
      "pbrMetallicRoughness": {
        "baseColorFactor": [
          1,
          1,
          1,
          1
        ],
        "metallicFactor": 0,
        "roughnessFactor": 1
      },
      "emissiveFactor": [
        0,
        0,
        0
      ],
      "alphaMode": "OPAQUE",
      "doubleSided": false
    },
    {
      "name": "Color_B08",
      "pbrMetallicRoughness": {
        "baseColorFactor": [
          0.4,
          0.098039,
          0,
          1
        ],
        "metallicFactor": 0,
        "roughnessFactor": 1
      },
      "emissiveFactor": [
        0,
        0,
        0
      ],
      "alphaMode": "OPAQUE",
      "doubleSided": false
    },
    {
      "name": "_22",
      "pbrMetallicRoughness": {
        "baseColorFactor": [
          0.12549,
          0.568627,
          0.086275,
          1
        ],
        "metallicFactor": 0,
        "roughnessFactor": 1
      },
      "emissiveFactor": [
        0,
        0,
        0
      ],
      "alphaMode": "OPAQUE",
      "doubleSided": false
    }
  ],
  "meshes": [
    {
      "name": "Mesh1 Group1 Pool1 Model_1",
      "primitives": [
        {
          "attributes": {
            "POSITION": 0,
            "NORMAL": 1,
            "TEXCOORD_0": 2
          },
          "indices": 3,
          "material": 0,
          "mode": 4
        }
      ]
    },
    {
      "name": "Mesh3 Group2 Pool1 Model_1",
      "primitives": [
        {
          "attributes": {
            "POSITION": 4,
            "NORMAL": 5,
            "TEXCOORD_0": 6
          },
          "indices": 7,
          "material": 0,
          "mode": 4
        }
      ]
    },
    {
      "name": "Mesh5 Group3 Pool1 Model_1",
      "primitives": [
        {
          "attributes": {
            "POSITION": 8,
            "NORMAL": 9,
            "TEXCOORD_0": 10
          },
          "indices": 11,
          "material": 0,
          "mode": 4
        }
      ]
    },
    {
      "name": "Mesh7 Pool1 Model_1",
      "primitives": [
        {
          "attributes": {
            "POSITION": 12,
            "NORMAL": 13,
            "TEXCOORD_0": 14
          },
          "indices": 15,
          "material": 0,
          "mode": 4
        },
        {
          "attributes": {
            "POSITION": 12,
            "NORMAL": 13,
            "TEXCOORD_0": 14
          },
          "indices": 16,
          "material": 1,
          "mode": 4
        },
        {
          "attributes": {
            "POSITION": 12,
            "NORMAL": 13,
            "TEXCOORD_0": 14
          },
          "indices": 17,
          "material": 2,
          "mode": 4
        },
        {
          "attributes": {
            "POSITION": 12,
            "NORMAL": 13,
            "TEXCOORD_0": 14
          },
          "indices": 18,
          "material": 3,
          "mode": 4
        },
        {
          "attributes": {
            "POSITION": 12,
            "NORMAL": 13,
            "TEXCOORD_0": 14
          },
          "indices": 19,
          "material": 4,
          "mode": 4
        },
        {
          "attributes": {
            "POSITION": 12,
            "NORMAL": 13,
            "TEXCOORD_0": 14
          },
          "indices": 20,
          "material": 5,
          "mode": 4
        },
        {
          "attributes": {
            "POSITION": 12,
            "NORMAL": 13,
            "TEXCOORD_0": 14
          },
          "indices": 21,
          "material": 6,
          "mode": 4
        }
      ]
    }
  ],
  "nodes": [
    {
      "name": "Mesh1 Group1 Pool1 Model",
      "mesh": 0
    },
    {
      "name": "Mesh3 Group2 Pool1 Model",
      "mesh": 1
    },
    {
      "name": "Mesh5 Group3 Pool1 Model",
      "mesh": 2
    },
    {
      "name": "Mesh7 Pool1 Model",
      "mesh": 3
    }
  ],
  "scene": 0,
  "scenes": [
    {
      "nodes": [
        0,
        1,
        2,
        3
      ]
    }
  ]
}
