{
  "accessors": [
    {
      "name": "Mesh1 Group1 Tennis1 Model_1_positions",
      "componentType": 5126,
      "count": 64,
      "min": [
        -197.79100036621094,
        0,
        -125.19499969482422
      ],
      "max": [
        197.2050018310547,
        0,
        118.9260025024414
      ],
      "type": "VEC3",
      "bufferView": 0,
      "byteOffset": 0
    },
    {
      "name": "Mesh1 Group1 Tennis1 Model_1_normals",
      "componentType": 5126,
      "count": 64,
      "min": [
        0,
        -1,
        0
      ],
      "max": [
        0,
        1,
        0
      ],
      "type": "VEC3",
      "bufferView": 0,
      "byteOffset": 3552
    },
    {
      "name": "Mesh1 Group1 Tennis1 Model_1_texcoords",
      "componentType": 5126,
      "count": 64,
      "min": [
        -534.3560180664062,
        -329.25
      ],
      "max": [
        0,
        1
      ],
      "type": "VEC2",
      "bufferView": 1,
      "byteOffset": 0
    },
    {
      "name": "Mesh1 Group1 Tennis1 Model_1_0_indices",
      "componentType": 5123,
      "count": 174,
      "min": [
        0
      ],
      "max": [
        62
      ],
      "type": "SCALAR",
      "bufferView": 2,
      "byteOffset": 0
    },
    {
      "name": "Mesh1 Group1 Tennis1 Model_1_1_indices",
      "componentType": 5123,
      "count": 60,
      "min": [
        4
      ],
      "max": [
        63
      ],
      "type": "SCALAR",
      "bufferView": 2,
      "byteOffset": 348
    },
    {
      "name": "Mesh1 Group1 Tennis1 Model_1_2_indices",
      "componentType": 5123,
      "count": 114,
      "min": [
        5
      ],
      "max": [
        63
      ],
      "type": "SCALAR",
      "bufferView": 2,
      "byteOffset": 468
    },
    {
      "name": "Mesh10 Tennis1 Model_1_positions",
      "componentType": 5126,
      "count": 184,
      "min": [
        -3.2927401065826416,
        0,
        -109.46099853515625
      ],
      "max": [
        2.7072598934173584,
        36,
        103.92400360107422
      ],
      "type": "VEC3",
      "bufferView": 0,
      "byteOffset": 768
    },
    {
      "name": "Mesh10 Tennis1 Model_1_normals",
      "componentType": 5126,
      "count": 184,
      "min": [
        -1,
        -1,
        -1
      ],
      "max": [
        1,
        1,
        1
      ],
      "type": "VEC3",
      "bufferView": 0,
      "byteOffset": 4320
    },
    {
      "name": "Mesh10 Tennis1 Model_1_texcoords",
      "componentType": 5126,
      "count": 184,
      "min": [
        -394.12701416015625,
        -227.38699340820312
      ],
      "max": [
        394.12701416015625,
        1
      ],
      "type": "VEC2",
      "bufferView": 1,
      "byteOffset": 512
    },
    {
      "name": "Mesh10 Tennis1 Model_1_0_indices",
      "componentType": 5123,
      "count": 138,
      "min": [
        0
      ],
      "max": [
        178
      ],
      "type": "SCALAR",
      "bufferView": 2,
      "byteOffset": 696
    },
    {
      "name": "Mesh10 Tennis1 Model_1_1_indices",
      "componentType": 5123,
      "count": 123,
      "min": [
        4
      ],
      "max": [
        179
      ],
      "type": "SCALAR",
      "bufferView": 2,
      "byteOffset": 972
    },
    {
      "name": "Mesh10 Tennis1 Model_1_2_indices",
      "componentType": 5123,
      "count": 21,
      "min": [
        36
      ],
      "max": [
        139
      ],
      "type": "SCALAR",
      "bufferView": 2,
      "byteOffset": 1220
    },
    {
      "name": "Mesh10 Tennis1 Model_1_3_indices",
      "componentType": 5123,
      "count": 78,
      "min": [
        90
      ],
      "max": [
        183
      ],
      "type": "SCALAR",
      "bufferView": 2,
      "byteOffset": 1264
    },
    {
      "name": "Mesh10 Tennis1 Model_1_4_indices",
      "componentType": 5123,
      "count": 24,
      "min": [
        46
      ],
      "max": [
        167
      ],
      "type": "SCALAR",
      "bufferView": 2,
      "byteOffset": 1420
    },
    {
      "name": "Mesh11 Tennis1 Model_1_positions",
      "componentType": 5126,
      "count": 48,
      "min": [
        -3.2927401065826416,
        0,
        -112.21900177001953
      ],
      "max": [
        2.7072598934173584,
        36,
        -106.7030029296875
      ],
      "type": "VEC3",
      "bufferView": 0,
      "byteOffset": 2976
    },
    {
      "name": "Mesh11 Tennis1 Model_1_normals",
      "componentType": 5126,
      "count": 48,
      "min": [
        -1,
        -1,
        -1
      ],
      "max": [
        1,
        1,
        1
      ],
      "type": "VEC3",
      "bufferView": 0,
      "byteOffset": 6528
    },
    {
      "name": "Mesh11 Tennis1 Model_1_texcoords",
      "componentType": 5126,
      "count": 48,
      "min": [
        -231.14500427246094,
        -230.14500427246094
      ],
      "max": [
        231.14500427246094,
        1
      ],
      "type": "VEC2",
      "bufferView": 1,
      "byteOffset": 1984
    },
    {
      "name": "Mesh11 Tennis1 Model_1_0_indices",
      "componentType": 5123,
      "count": 36,
      "min": [
        4
      ],
      "max": [
        47
      ],
      "type": "SCALAR",
      "bufferView": 2,
      "byteOffset": 1468
    },
    {
      "name": "Mesh11 Tennis1 Model_1_1_indices",
      "componentType": 5123,
      "count": 36,
      "min": [
        0
      ],
      "max": [
        41
      ],
      "type": "SCALAR",
      "bufferView": 2,
      "byteOffset": 1540
    }
  ],
  "asset": {
    "generator": "obj2gltf",
    "version": "2.0"
  },
  "buffers": [
    {
      "name": "GreenTennisCourt",
      "byteLength": 11084,
      "uri": "data:application/octet-stream;base64,"
    }
  ],
  "bufferViews": [
    {
      "name": "bufferView_0",
      "buffer": 0,
      "byteLength": 7104,
      "byteOffset": 0,
      "byteStride": 12,
      "target": 34962
    },
    {
      "name": "bufferView_1",
      "buffer": 0,
      "byteLength": 2368,
      "byteOffset": 7104,
      "byteStride": 8,
      "target": 34962
    },
    {
      "name": "bufferView_2",
      "buffer": 0,
      "byteLength": 1612,
      "byteOffset": 9472,
      "target": 34963
    }
  ],
  "materials": [
    {
      "name": "_22",
      "pbrMetallicRoughness": {
        "baseColorFactor": [
          0.12549,
          0.568627,
          0.086275,
          1
        ],
        "metallicFactor": 0,
        "roughnessFactor": 1
      },
      "emissiveFactor": [
        0,
        0,
        0
      ],
      "alphaMode": "OPAQUE",
      "doubleSided": false
    },
    {
      "name": "Color_G07",
      "pbrMetallicRoughness": {
        "baseColorFactor": [
          0,
          0.6,
          0,
          1
        ],
        "metallicFactor": 0,
        "roughnessFactor": 1
      },
      "emissiveFactor": [
        0,
        0,
        0
      ],
      "alphaMode": "OPAQUE",
      "doubleSided": false
    },
    {
      "name": "Color_000",
      "pbrMetallicRoughness": {
        "baseColorFactor": [
          1,
          1,
          1,
          1
        ],
        "metallicFactor": 0,
        "roughnessFactor": 1
      },
      "emissiveFactor": [
        0,
        0,
        0
      ],
      "alphaMode": "OPAQUE",
      "doubleSided": false
    },
    {
      "name": "Color_M07",
      "pbrMetallicRoughness": {
        "baseColorFactor": [
          0.227451,
          0.227451,
          0.227451,
          1
        ],
        "metallicFactor": 0,
        "roughnessFactor": 1
      },
      "emissiveFactor": [
        0,
        0,
        0
      ],
      "alphaMode": "OPAQUE",
      "doubleSided": false
    },
    {
      "name": "BackColor",
      "pbrMetallicRoughness": {
        "baseColorFactor": [
          0.643137,
          0.698039,
          0.733333,
          1
        ],
        "metallicFactor": 0,
        "roughnessFactor": 1
      },
      "emissiveFactor": [
        0,
        0,
        0
      ],
      "alphaMode": "OPAQUE",
      "doubleSided": false
    },
    {
      "name": "Concrete_Masonry_Unit",
      "pbrMetallicRoughness": {
        "baseColorFactor": [
          0.94902,
          0.94902,
          0.94902,
          1
        ],
        "metallicFactor": 0,
        "roughnessFactor": 1
      },
      "emissiveFactor": [
        0,
        0,
        0
      ],
      "alphaMode": "OPAQUE",
      "doubleSided": false
    },
    {
      "name": "Color_M00",
      "pbrMetallicRoughness": {
        "baseColorFactor": [
          1,
          1,
          1,
          1
        ],
        "metallicFactor": 0,
        "roughnessFactor": 1
      },
      "emissiveFactor": [
        0,
        0,
        0
      ],
      "alphaMode": "OPAQUE",
      "doubleSided": false
    },
    {
      "name": "Color_M03",
      "pbrMetallicRoughness": {
        "baseColorFactor": [
          0.666667,
          0.666667,
          0.666667,
          1
        ],
        "metallicFactor": 0,
        "roughnessFactor": 1
      },
      "emissiveFactor": [
        0,
        0,
        0
      ],
      "alphaMode": "OPAQUE",
      "doubleSided": false
    }
  ],
  "meshes": [
    {
      "name": "Mesh1 Group1 Tennis1 Model_1",
      "primitives": [
        {
          "attributes": {
            "POSITION": 0,
            "NORMAL": 1,
            "TEXCOORD_0": 2
          },
          "indices": 3,
          "material": 0,
          "mode": 4
        },
        {
          "attributes": {
            "POSITION": 0,
            "NORMAL": 1,
            "TEXCOORD_0": 2
          },
          "indices": 4,
          "material": 1,
          "mode": 4
        },
        {
          "attributes": {
            "POSITION": 0,
            "NORMAL": 1,
            "TEXCOORD_0": 2
          },
          "indices": 5,
          "material": 2,
          "mode": 4
        }
      ]
    },
    {
      "name": "Mesh10 Tennis1 Model_1",
      "primitives": [
        {
          "attributes": {
            "POSITION": 6,
            "NORMAL": 7,
            "TEXCOORD_0": 8
          },
          "indices": 9,
          "material": 3,
          "mode": 4
        },
        {
          "attributes": {
            "POSITION": 6,
            "NORMAL": 7,
            "TEXCOORD_0": 8
          },
          "indices": 10,
          "material": 4,
          "mode": 4
        },
        {
          "attributes": {
            "POSITION": 6,
            "NORMAL": 7,
            "TEXCOORD_0": 8
          },
          "indices": 11,
          "material": 5,
          "mode": 4
        },
        {
          "attributes": {
            "POSITION": 6,
            "NORMAL": 7,
            "TEXCOORD_0": 8
          },
          "indices": 12,
          "material": 6,
          "mode": 4
        },
        {
          "attributes": {
            "POSITION": 6,
            "NORMAL": 7,
            "TEXCOORD_0": 8
          },
          "indices": 13,
          "material": 7,
          "mode": 4
        }
      ]
    },
    {
      "name": "Mesh11 Tennis1 Model_1",
      "primitives": [
        {
          "attributes": {
            "POSITION": 14,
            "NORMAL": 15,
            "TEXCOORD_0": 16
          },
          "indices": 17,
          "material": 4,
          "mode": 4
        },
        {
          "attributes": {
            "POSITION": 14,
            "NORMAL": 15,
            "TEXCOORD_0": 16
          },
          "indices": 18,
          "material": 3,
          "mode": 4
        }
      ]
    }
  ],
  "nodes": [
    {
      "name": "Mesh1 Group1 Tennis1 Model",
      "mesh": 0
    },
    {
      "name": "Mesh10 Tennis1 Model",
      "mesh": 1
    },
    {
      "name": "Mesh11 Tennis1 Model",
      "mesh": 2
    }
  ],
  "scene": 0,
  "scenes": [
    {
      "nodes": [
        0,
        1,
        2
      ]
    }
  ]
}
