{
  "accessors": [
    {
      "name": "Mesh1 Group1 SPA1 Model_1_positions",
      "componentType": 5126,
      "count": 278,
      "min": [
        158.14700317382812,
        325.260986328125,
        147.67999267578125
      ],
      "max": [
        278.489013671875,
        433.81500244140625,
        272.2149963378906
      ],
      "type": "VEC3",
      "bufferView": 0,
      "byteOffset": 0
    },
    {
      "name": "Mesh1 Group1 SPA1 Model_1_normals",
      "componentType": 5126,
      "count": 278,
      "min": [
        -0.87493497133255,
        -1,
        -0.9224780201911926
      ],
      "max": [
        0.87493497133255,
        1,
        0.9224780201911926
      ],
      "type": "VEC3",
      "bufferView": 0,
      "byteOffset": 23520
    },
    {
      "name": "Mesh1 Group1 SPA1 Model_1_texcoords",
      "componentType": 5126,
      "count": 278,
      "min": [
        -120.96700286865234,
        -123.53500366210938
      ],
      "max": [
        121.81999969482422,
        1
      ],
      "type": "VEC2",
      "bufferView": 1,
      "byteOffset": 0
    },
    {
      "name": "Mesh1 Group1 SPA1 Model_1_0_indices",
      "componentType": 5123,
      "count": 516,
      "min": [
        0
      ],
      "max": [
        277
      ],
      "type": "SCALAR",
      "bufferView": 2,
      "byteOffset": 0
    },
    {
      "name": "Mesh4 Group2 SPA1 Model_1_positions",
      "componentType": 5126,
      "count": 278,
      "min": [
        27.025699615478516,
        324.7650146484375,
        203.8249969482422
      ],
      "max": [
        147.3679962158203,
        433.3190002441406,
        328.3599853515625
      ],
      "type": "VEC3",
      "bufferView": 0,
      "byteOffset": 3336
    },
    {
      "name": "Mesh4 Group2 SPA1 Model_1_normals",
      "componentType": 5126,
      "count": 278,
      "min": [
        -0.87493497133255,
        -1,
        -0.9224780201911926
      ],
      "max": [
        0.87493497133255,
        1,
        0.9224780201911926
      ],
      "type": "VEC3",
      "bufferView": 0,
      "byteOffset": 26856
    },
    {
      "name": "Mesh4 Group2 SPA1 Model_1_texcoords",
      "componentType": 5126,
      "count": 278,
      "min": [
        -120.96700286865234,
        -123.53500366210938
      ],
      "max": [
        121.81999969482422,
        1
      ],
      "type": "VEC2",
      "bufferView": 1,
      "byteOffset": 2224
    },
    {
      "name": "Mesh4 Group2 SPA1 Model_1_0_indices",
      "componentType": 5123,
      "count": 516,
      "min": [
        0
      ],
      "max": [
        277
      ],
      "type": "SCALAR",
      "bufferView": 2,
      "byteOffset": 1032
    },
    {
      "name": "Mesh7 SPA1 Model_1_positions",
      "componentType": 5126,
      "count": 1078,
      "min": [
        -515.5479736328125,
        5.625,
        -481.5660095214844
      ],
      "max": [
        393.0530090332031,
        513.9600219726562,
        467.70098876953125
      ],
      "type": "VEC3",
      "bufferView": 0,
      "byteOffset": 6672
    },
    {
      "name": "Mesh7 SPA1 Model_1_normals",
      "componentType": 5126,
      "count": 1078,
      "min": [
        -1,
        -1,
        -0.9876880049705505
      ],
      "max": [
        1,
        1,
        0.9876880049705505
      ],
      "type": "VEC3",
      "bufferView": 0,
      "byteOffset": 30192
    },
    {
      "name": "Mesh7 SPA1 Model_1_texcoords",
      "componentType": 5126,
      "count": 1078,
      "min": [
        -1000.9099731445312,
        -948.2670288085938
      ],
      "max": [
        1000.9099731445312,
        1
      ],
      "type": "VEC2",
      "bufferView": 1,
      "byteOffset": 4448
    },
    {
      "name": "Mesh7 SPA1 Model_1_0_indices",
      "componentType": 5123,
      "count": 516,
      "min": [
        0
      ],
      "max": [
        1077
      ],
      "type": "SCALAR",
      "bufferView": 2,
      "byteOffset": 2064
    },
    {
      "name": "Mesh7 SPA1 Model_1_1_indices",
      "componentType": 5123,
      "count": 609,
      "min": [
        14
      ],
      "max": [
        1029
      ],
      "type": "SCALAR",
      "bufferView": 2,
      "byteOffset": 3096
    },
    {
      "name": "Mesh7 SPA1 Model_1_2_indices",
      "componentType": 5123,
      "count": 165,
      "min": [
        18
      ],
      "max": [
        695
      ],
      "type": "SCALAR",
      "bufferView": 2,
      "byteOffset": 4316
    },
    {
      "name": "Mesh7 SPA1 Model_1_3_indices",
      "componentType": 5123,
      "count": 21,
      "min": [
        114
      ],
      "max": [
        660
      ],
      "type": "SCALAR",
      "bufferView": 2,
      "byteOffset": 4648
    },
    {
      "name": "Mesh7 SPA1 Model_1_4_indices",
      "componentType": 5123,
      "count": 375,
      "min": [
        118
      ],
      "max": [
        1067
      ],
      "type": "SCALAR",
      "bufferView": 2,
      "byteOffset": 4692
    },
    {
      "name": "Mesh7 SPA1 Model_1_5_indices",
      "componentType": 5123,
      "count": 54,
      "min": [
        307
      ],
      "max": [
        931
      ],
      "type": "SCALAR",
      "bufferView": 2,
      "byteOffset": 5444
    },
    {
      "name": "Mesh7 SPA1 Model_1_6_indices",
      "componentType": 5123,
      "count": 324,
      "min": [
        315
      ],
      "max": [
        1065
      ],
      "type": "SCALAR",
      "bufferView": 2,
      "byteOffset": 5552
    },
    {
      "name": "Mesh7 SPA1 Model_1_7_indices",
      "componentType": 5123,
      "count": 180,
      "min": [
        382
      ],
      "max": [
        1064
      ],
      "type": "SCALAR",
      "bufferView": 2,
      "byteOffset": 6200
    },
    {
      "name": "Mesh7 SPA1 Model_1_8_indices",
      "componentType": 5123,
      "count": 264,
      "min": [
        392
      ],
      "max": [
        1015
      ],
      "type": "SCALAR",
      "bufferView": 2,
      "byteOffset": 6560
    },
    {
      "name": "Mesh7 SPA1 Model_1_9_indices",
      "componentType": 5123,
      "count": 24,
      "min": [
        958
      ],
      "max": [
        1021
      ],
      "type": "SCALAR",
      "bufferView": 2,
      "byteOffset": 7088
    },
    {
      "name": "Mesh8 SPA1 Model_1_positions",
      "componentType": 5126,
      "count": 326,
      "min": [
        64.38870239257812,
        -58.6875,
        -520.6790161132812
      ],
      "max": [
        514.4429931640625,
        687.6909790039062,
        457.3680114746094
      ],
      "type": "VEC3",
      "bufferView": 0,
      "byteOffset": 19608
    },
    {
      "name": "Mesh8 SPA1 Model_1_normals",
      "componentType": 5126,
      "count": 326,
      "min": [
        -0.9266759753227234,
        -1,
        -0.9266759753227234
      ],
      "max": [
        0.9266759753227234,
        1,
        0.9266759753227234
      ],
      "type": "VEC3",
      "bufferView": 0,
      "byteOffset": 43128
    },
    {
      "name": "Mesh8 SPA1 Model_1_texcoords",
      "componentType": 5126,
      "count": 326,
      "min": [
        -1029.989990234375,
        -987.3800048828125
      ],
      "max": [
        1029.989990234375,
        1
      ],
      "type": "VEC2",
      "bufferView": 1,
      "byteOffset": 13072
    },
    {
      "name": "Mesh8 SPA1 Model_1_0_indices",
      "componentType": 5123,
      "count": 87,
      "min": [
        0
      ],
      "max": [
        325
      ],
      "type": "SCALAR",
      "bufferView": 2,
      "byteOffset": 7136
    },
    {
      "name": "Mesh8 SPA1 Model_1_1_indices",
      "componentType": 5123,
      "count": 300,
      "min": [
        4
      ],
      "max": [
        322
      ],
      "type": "SCALAR",
      "bufferView": 2,
      "byteOffset": 7312
    },
    {
      "name": "Mesh8 SPA1 Model_1_2_indices",
      "componentType": 5123,
      "count": 261,
      "min": [
        13
      ],
      "max": [
        320
      ],
      "type": "SCALAR",
      "bufferView": 2,
      "byteOffset": 7912
    },
    {
      "name": "Mesh8 SPA1 Model_1_3_indices",
      "componentType": 5123,
      "count": 36,
      "min": [
        29
      ],
      "max": [
        323
      ],
      "type": "SCALAR",
      "bufferView": 2,
      "byteOffset": 8436
    },
    {
      "name": "Mesh8 SPA1 Model_1_4_indices",
      "componentType": 5123,
      "count": 12,
      "min": [
        38
      ],
      "max": [
        188
      ],
      "type": "SCALAR",
      "bufferView": 2,
      "byteOffset": 8508
    }
  ],
  "asset": {
    "generator": "obj2gltf",
    "version": "2.0"
  },
  "buffers": [
    {
      "name": "Spa_tilted",
      "byteLength": 71252,
      "uri": "data:application/octet-stream;base64,"
    }
  ],
  "bufferViews": [
    {
      "name": "bufferView_0",
      "buffer": 0,
      "byteLength": 47040,
      "byteOffset": 0,
      "byteStride": 12,
      "target": 34962
    },
    {
      "name": "bufferView_1",
      "buffer": 0,
      "byteLength": 15680,
      "byteOffset": 47040,
      "byteStride": 8,
      "target": 34962
    },
    {
      "name": "bufferView_2",
      "buffer": 0,
      "byteLength": 8532,
      "byteOffset": 62720,
      "target": 34963
    }
  ],
  "materials": [
    {
      "name": "Color_D07",
      "pbrMetallicRoughness": {
        "baseColorFactor": [
          0.6,
          0.447059,
          0,
          1
        ],
        "metallicFactor": 0,
        "roughnessFactor": 1
      },
      "emissiveFactor": [
        0,
        0,
        0
      ],
      "alphaMode": "OPAQUE",
      "doubleSided": false
    },
    {
      "name": "FrontColor",
      "pbrMetallicRoughness": {
        "baseColorFactor": [
          1,
          1,
          1,
          1
        ],
        "metallicFactor": 0,
        "roughnessFactor": 1
      },
      "emissiveFactor": [
        0,
        0,
        0
      ],
      "alphaMode": "OPAQUE",
      "doubleSided": false
    },
    {
      "name": "Stacy_Shoe_Laces_Sole",
      "pbrMetallicRoughness": {
        "baseColorFactor": [
          0.886275,
          0.886275,
          0.886275,
          1
        ],
        "metallicFactor": 0,
        "roughnessFactor": 1
      },
      "emissiveFactor": [
        0,
        0,
        0
      ],
      "alphaMode": "OPAQUE",
      "doubleSided": false
    },
    {
      "name": "Color_D01",
      "pbrMetallicRoughness": {
        "baseColorFactor": [
          1,
          0.94902,
          0.8,
          1
        ],
        "metallicFactor": 0,
        "roughnessFactor": 1
      },
      "emissiveFactor": [
        0,
        0,
        0
      ],
      "alphaMode": "OPAQUE",
      "doubleSided": false
    },
    {
      "name": "BackColor",
      "pbrMetallicRoughness": {
        "baseColorFactor": [
          0.643137,
          0.698039,
          0.733333,
          1
        ],
        "metallicFactor": 0,
        "roughnessFactor": 1
      },
      "emissiveFactor": [
        0,
        0,
        0
      ],
      "alphaMode": "OPAQUE",
      "doubleSided": false
    },
    {
      "name": "_",
      "pbrMetallicRoughness": {
        "baseColorFactor": [
          1,
          0.898039,
          0.6,
          1
        ],
        "metallicFactor": 0,
        "roughnessFactor": 1
      },
      "emissiveFactor": [
        0,
        0,
        0
      ],
      "alphaMode": "OPAQUE",
      "doubleSided": false
    },
    {
      "name": "GREEN",
      "pbrMetallicRoughness": {
        "baseColorFactor": [
          0.45098,
          0.647059,
          0.498039,
          1
        ],
        "metallicFactor": 0,
        "roughnessFactor": 1
      },
      "emissiveFactor": [
        0,
        0,
        0
      ],
      "alphaMode": "OPAQUE",
      "doubleSided": false
    },
    {
      "name": "_4",
      "pbrMetallicRoughness": {
        "baseColorFactor": [
          0.776471,
          0.776471,
          0.776471,
          1
        ],
        "metallicFactor": 0,
        "roughnessFactor": 1
      },
      "emissiveFactor": [
        0,
        0,
        0
      ],
      "alphaMode": "OPAQUE",
      "doubleSided": false
    },
    {
      "name": "_45",
      "pbrMetallicRoughness": {
        "baseColorFactor": [
          0.392157,
          0.584314,
          0.929412,
          0.5
        ],
        "metallicFactor": 0,
        "roughnessFactor": 1
      },
      "emissiveFactor": [
        0,
        0,
        0
      ],
      "alphaMode": "BLEND",
      "doubleSided": true
    },
    {
      "name": "Color_M04",
      "pbrMetallicRoughness": {
        "baseColorFactor": [
          0.556863,
          0.556863,
          0.556863,
          1
        ],
        "metallicFactor": 0,
        "roughnessFactor": 1
      },
      "emissiveFactor": [
        0,
        0,
        0
      ],
      "alphaMode": "OPAQUE",
      "doubleSided": false
    },
    {
      "name": "_auto_2",
      "pbrMetallicRoughness": {
        "baseColorFactor": [
          0.215686,
          0.160784,
          0.137255,
          1
        ],
        "metallicFactor": 0,
        "roughnessFactor": 1
      },
      "emissiveFactor": [
        0,
        0,
        0
      ],
      "alphaMode": "OPAQUE",
      "doubleSided": false
    }
  ],
  "meshes": [
    {
      "name": "Mesh1 Group1 SPA1 Model_1",
      "primitives": [
        {
          "attributes": {
            "POSITION": 0,
            "NORMAL": 1,
            "TEXCOORD_0": 2
          },
          "indices": 3,
          "material": 0,
          "mode": 4
        }
      ]
    },
    {
      "name": "Mesh4 Group2 SPA1 Model_1",
      "primitives": [
        {
          "attributes": {
            "POSITION": 4,
            "NORMAL": 5,
            "TEXCOORD_0": 6
          },
          "indices": 7,
          "material": 0,
          "mode": 4
        }
      ]
    },
    {
      "name": "Mesh7 SPA1 Model_1",
      "primitives": [
        {
          "attributes": {
            "POSITION": 8,
            "NORMAL": 9,
            "TEXCOORD_0": 10
          },
          "indices": 11,
          "material": 0,
          "mode": 4
        },
        {
          "attributes": {
            "POSITION": 8,
            "NORMAL": 9,
            "TEXCOORD_0": 10
          },
          "indices": 12,
          "material": 1,
          "mode": 4
        },
        {
          "attributes": {
            "POSITION": 8,
            "NORMAL": 9,
            "TEXCOORD_0": 10
          },
          "indices": 13,
          "material": 2,
          "mode": 4
        },
        {
          "attributes": {
            "POSITION": 8,
            "NORMAL": 9,
            "TEXCOORD_0": 10
          },
          "indices": 14,
          "material": 3,
          "mode": 4
        },
        {
          "attributes": {
            "POSITION": 8,
            "NORMAL": 9,
            "TEXCOORD_0": 10
          },
          "indices": 15,
          "material": 4,
          "mode": 4
        },
        {
          "attributes": {
            "POSITION": 8,
            "NORMAL": 9,
            "TEXCOORD_0": 10
          },
          "indices": 16,
          "material": 5,
          "mode": 4
        },
        {
          "attributes": {
            "POSITION": 8,
            "NORMAL": 9,
            "TEXCOORD_0": 10
          },
          "indices": 17,
          "material": 6,
          "mode": 4
        },
        {
          "attributes": {
            "POSITION": 8,
            "NORMAL": 9,
            "TEXCOORD_0": 10
          },
          "indices": 18,
          "material": 7,
          "mode": 4
        },
        {
          "attributes": {
            "POSITION": 8,
            "NORMAL": 9,
            "TEXCOORD_0": 10
          },
          "indices": 19,
          "material": 8,
          "mode": 4
        },
        {
          "attributes": {
            "POSITION": 8,
            "NORMAL": 9,
            "TEXCOORD_0": 10
          },
          "indices": 20,
          "material": 9,
          "mode": 4
        }
      ]
    },
    {
      "name": "Mesh8 SPA1 Model_1",
      "primitives": [
        {
          "attributes": {
            "POSITION": 21,
            "NORMAL": 22,
            "TEXCOORD_0": 23
          },
          "indices": 24,
          "material": 6,
          "mode": 4
        },
        {
          "attributes": {
            "POSITION": 21,
            "NORMAL": 22,
            "TEXCOORD_0": 23
          },
          "indices": 25,
          "material": 4,
          "mode": 4
        },
        {
          "attributes": {
            "POSITION": 21,
            "NORMAL": 22,
            "TEXCOORD_0": 23
          },
          "indices": 26,
          "material": 1,
          "mode": 4
        },
        {
          "attributes": {
            "POSITION": 21,
            "NORMAL": 22,
            "TEXCOORD_0": 23
          },
          "indices": 27,
          "material": 8,
          "mode": 4
        },
        {
          "attributes": {
            "POSITION": 21,
            "NORMAL": 22,
            "TEXCOORD_0": 23
          },
          "indices": 28,
          "material": 10,
          "mode": 4
        }
      ]
    }
  ],
  "nodes": [
    {
      "name": "Mesh1 Group1 SPA1 Model",
      "mesh": 0
    },
    {
      "name": "Mesh4 Group2 SPA1 Model",
      "mesh": 1
    },
    {
      "name": "Mesh7 SPA1 Model",
      "mesh": 2
    },
    {
      "name": "Mesh8 SPA1 Model",
      "mesh": 3
    }
  ],
  "scene": 0,
  "scenes": [
    {
      "nodes": [
        0,
        1,
        2,
        3
      ]
    }
  ]
}
