{"accessors":[{"name":"Cone.012_Cone.015-Mesh_positions","componentType":5126,"count":660,"min":[-6.194818019866943,2.4326820373535156,-1.31358802318573],"max":[0.08362899720668793,4.147113800048828,6.838935852050781],"type":"VEC3","bufferView":0,"byteOffset":0},{"name":"Cone.012_Cone.015-Mesh_normals","componentType":5126,"count":660,"min":[-0.9879999756813049,-0.0608999989926815,-0.9980999827384949],"max":[0.9879999756813049,1,0.9577000141143799],"type":"VEC3","bufferView":0,"byteOffset":146796},{"name":"Cone.012_Cone.015-Mesh_0_indices","componentType":5123,"count":900,"min":[0],"max":[659],"type":"SCALAR","bufferView":1,"byteOffset":0},{"name":"Icosphere.001-Mesh_positions","componentType":5126,"count":1552,"min":[0.8518689870834351,3.638340950012207,0.41725799441337585],"max":[3.106642961502075,5.638340950012207,2.516062021255493],"type":"VEC3","bufferView":0,"byteOffset":7920},{"name":"Icosphere.001-Mesh_normals","componentType":5126,"count":1552,"min":[-0.9908999800682068,-1,-0.9908999800682068],"max":[0.9908999800682068,1,0.9908999800682068],"type":"VEC3","bufferView":0,"byteOffset":154716},{"name":"Icosphere.001-Mesh_0_indices","componentType":5123,"count":1755,"min":[0],"max":[1451],"type":"SCALAR","bufferView":1,"byteOffset":1800},{"name":"Icosphere.001-Mesh_1_indices","componentType":5123,"count":111,"min":[19],"max":[1551],"type":"SCALAR","bufferView":1,"byteOffset":5312},{"name":"Plane.001_Plane.002-Mesh_positions","componentType":5126,"count":64,"min":[-4.936379909515381,3.978882074356079,-0.06466499716043472],"max":[0.25611498951911926,4.469330787658691,5.9726691246032715],"type":"VEC3","bufferView":0,"byteOffset":26544},{"name":"Plane.001_Plane.002-Mesh_normals","componentType":5126,"count":64,"min":[-1,-0.6819000244140625,-0.8659999966621399],"max":[1,1,0.8659999966621399],"type":"VEC3","bufferView":0,"byteOffset":173340},{"name":"Plane.001_Plane.002-Mesh_0_indices","componentType":5123,"count":30,"min":[0],"max":[9],"type":"SCALAR","bufferView":1,"byteOffset":5536},{"name":"Plane.001_Plane.002-Mesh_1_indices","componentType":5123,"count":84,"min":[10],"max":[63],"type":"SCALAR","bufferView":1,"byteOffset":5596},{"name":"Cone.005_Cone.008-Mesh_positions","componentType":5126,"count":206,"min":[-4.737040042877197,4.238274097442627,-2.4927709102630615],"max":[-2.4176430702209473,8.635300636291504,-0.1969819962978363],"type":"VEC3","bufferView":0,"byteOffset":27312},{"name":"Cone.005_Cone.008-Mesh_normals","componentType":5126,"count":206,"min":[-0.9510999917984009,-1,-1],"max":[0.9510999917984009,1,0.8180000185966492],"type":"VEC3","bufferView":0,"byteOffset":174108},{"name":"Cone.005_Cone.008-Mesh_0_indices","componentType":5123,"count":108,"min":[0],"max":[43],"type":"SCALAR","bufferView":1,"byteOffset":5764},{"name":"Cone.005_Cone.008-Mesh_1_indices","componentType":5123,"count":48,"min":[44],"max":[73],"type":"SCALAR","bufferView":1,"byteOffset":5980},{"name":"Cone.005_Cone.008-Mesh_2_indices","componentType":5123,"count":132,"min":[74],"max":[205],"type":"SCALAR","bufferView":1,"byteOffset":6076},{"name":"Cone.004_Cone.007-Mesh_positions","componentType":5126,"count":206,"min":[-2.100229024887085,4.256045818328857,-1.0431560277938843],"max":[-0.18119099736213684,8.630439758300781,0.856348991394043],"type":"VEC3","bufferView":0,"byteOffset":29784},{"name":"Cone.004_Cone.007-Mesh_normals","componentType":5126,"count":206,"min":[-0.9510999917984009,-1,-1],"max":[0.9510999917984009,1,0.8632000088691711],"type":"VEC3","bufferView":0,"byteOffset":176580},{"name":"Cone.004_Cone.007-Mesh_0_indices","componentType":5123,"count":132,"min":[74],"max":[205],"type":"SCALAR","bufferView":1,"byteOffset":6340},{"name":"Cone.004_Cone.007-Mesh_1_indices","componentType":5123,"count":108,"min":[0],"max":[43],"type":"SCALAR","bufferView":1,"byteOffset":6604},{"name":"Cone.004_Cone.007-Mesh_2_indices","componentType":5123,"count":48,"min":[44],"max":[73],"type":"SCALAR","bufferView":1,"byteOffset":6820},{"name":"Cone.002_Cone.006-Mesh_positions","componentType":5126,"count":206,"min":[-2.408371925354004,3.594438076019287,-4.724463939666748],"max":[0.12695200741291046,9.373638153076172,-2.2149460315704346],"type":"VEC3","bufferView":0,"byteOffset":32256},{"name":"Cone.002_Cone.006-Mesh_normals","componentType":5126,"count":206,"min":[-0.9510999917984009,-1,-1],"max":[0.9510999917984009,1,0.8632000088691711],"type":"VEC3","bufferView":0,"byteOffset":179052},{"name":"Cone.002_Cone.006-Mesh_0_indices","componentType":5123,"count":132,"min":[74],"max":[205],"type":"SCALAR","bufferView":1,"byteOffset":6916},{"name":"Cone.002_Cone.006-Mesh_1_indices","componentType":5123,"count":108,"min":[0],"max":[43],"type":"SCALAR","bufferView":1,"byteOffset":7180},{"name":"Cone.002_Cone.006-Mesh_2_indices","componentType":5123,"count":48,"min":[44],"max":[73],"type":"SCALAR","bufferView":1,"byteOffset":7396},{"name":"Cone.001_Cone.005-Mesh_positions","componentType":5126,"count":206,"min":[0.5072489976882935,3.9896509647369385,-3.795409917831421],"max":[2.535499095916748,8.159523963928223,-1.7878049612045288],"type":"VEC3","bufferView":0,"byteOffset":34728},{"name":"Cone.001_Cone.005-Mesh_normals","componentType":5126,"count":206,"min":[-0.9510999917984009,-1,-1],"max":[0.9510999917984009,1,0.8391000032424927],"type":"VEC3","bufferView":0,"byteOffset":181524},{"name":"Cone.001_Cone.005-Mesh_0_indices","componentType":5123,"count":132,"min":[74],"max":[205],"type":"SCALAR","bufferView":1,"byteOffset":7492},{"name":"Cone.001_Cone.005-Mesh_1_indices","componentType":5123,"count":108,"min":[0],"max":[43],"type":"SCALAR","bufferView":1,"byteOffset":7756},{"name":"Cone.001_Cone.005-Mesh_2_indices","componentType":5123,"count":48,"min":[44],"max":[73],"type":"SCALAR","bufferView":1,"byteOffset":7972},{"name":"Cone.003-Mesh_positions","componentType":5126,"count":206,"min":[1.570585012435913,3.9896509647369385,-2.1467549800872803],"max":[3.598834991455078,8.159523963928223,-0.1391499936580658],"type":"VEC3","bufferView":0,"byteOffset":37200},{"name":"Cone.003-Mesh_normals","componentType":5126,"count":206,"min":[-0.9510999917984009,-1,-1],"max":[0.9510999917984009,1,0.8391000032424927],"type":"VEC3","bufferView":0,"byteOffset":183996},{"name":"Cone.003-Mesh_0_indices","componentType":5123,"count":132,"min":[74],"max":[205],"type":"SCALAR","bufferView":1,"byteOffset":8068},{"name":"Cone.003-Mesh_1_indices","componentType":5123,"count":108,"min":[0],"max":[43],"type":"SCALAR","bufferView":1,"byteOffset":8332},{"name":"Cone.003-Mesh_2_indices","componentType":5123,"count":48,"min":[44],"max":[73],"type":"SCALAR","bufferView":1,"byteOffset":8548},{"name":"Icosphere-Mesh_positions","componentType":5126,"count":1563,"min":[0.8394870162010193,3.638340950012207,2.916533946990967],"max":[3.107738971710205,5.638340950012207,5.002964019775391],"type":"VEC3","bufferView":0,"byteOffset":39672},{"name":"Icosphere-Mesh_normals","componentType":5126,"count":1563,"min":[-0.9854000210762024,-1,-0.9847999811172485],"max":[0.9854000210762024,1,0.9847999811172485],"type":"VEC3","bufferView":0,"byteOffset":186468},{"name":"Icosphere-Mesh_0_indices","componentType":5123,"count":1755,"min":[0],"max":[1462],"type":"SCALAR","bufferView":1,"byteOffset":8644},{"name":"Icosphere-Mesh_1_indices","componentType":5123,"count":111,"min":[13],"max":[1562],"type":"SCALAR","bufferView":1,"byteOffset":12156},{"name":"Cone-Mesh_positions","componentType":5126,"count":7364,"min":[-6.480673789978027,-4.124368190765381,-5.111969947814941],"max":[6.2570719718933105,4.991836071014404,7.465940952301025],"type":"VEC3","bufferView":0,"byteOffset":58428},{"name":"Cone-Mesh_normals","componentType":5126,"count":7364,"min":[-0.9995999932289124,-0.9786999821662903,-0.9916999936103821],"max":[0.9968000054359436,1,0.9951000213623047],"type":"VEC3","bufferView":0,"byteOffset":205224},{"name":"Cone-Mesh_0_indices","componentType":5123,"count":3531,"min":[0],"max":[3366],"type":"SCALAR","bufferView":1,"byteOffset":12380},{"name":"Cone-Mesh_1_indices","componentType":5123,"count":4137,"min":[3367],"max":[7363],"type":"SCALAR","bufferView":1,"byteOffset":19444}],"asset":{"generator":"obj2gltf","version":"2.0"},"buffers":[{"name":"WinterIslandv2","byteLength":321312,"uri":"data:application/octet-stream;base64,"}],"bufferViews":[{"name":"bufferView_0","buffer":0,"byteLength":293592,"byteOffset":0,"byteStride":12,"target":34962},{"name":"bufferView_1","buffer":0,"byteLength":27720,"byteOffset":293592,"target":34963}],"materials":[{"name":"Material.009","pbrMetallicRoughness":{"baseColorFactor":[0.080224,0.308937,0.64,1],"metallicFactor":0,"roughnessFactor":0.903921569},"emissiveFactor":[0,0,0],"alphaMode":"OPAQUE","doubleSided":false},{"name":"Material","pbrMetallicRoughness":{"baseColorFactor":[0.64,0.64,0.64,1],"metallicFactor":0,"roughnessFactor":0.903921569},"emissiveFactor":[0,0,0],"alphaMode":"OPAQUE","doubleSided":false},{"name":"Material.001","pbrMetallicRoughness":{"baseColorFactor":[0,0,0,1],"metallicFactor":0,"roughnessFactor":0.903921569},"emissiveFactor":[0,0,0],"alphaMode":"OPAQUE","doubleSided":false},{"name":"Material.006","pbrMetallicRoughness":{"baseColorFactor":[0.263412,0.449502,0.64,1],"metallicFactor":0,"roughnessFactor":0.903921569},"emissiveFactor":[0,0,0],"alphaMode":"OPAQUE","doubleSided":false},{"name":"Material.007","pbrMetallicRoughness":{"baseColorFactor":[0.006724,0,0.661999,1],"metallicFactor":0,"roughnessFactor":0.903921569},"emissiveFactor":[0,0,0],"alphaMode":"OPAQUE","doubleSided":false},{"name":"Material.005","pbrMetallicRoughness":{"baseColorFactor":[0.038465,0.081981,0.030317,1],"metallicFactor":0,"roughnessFactor":0.903921569},"emissiveFactor":[0,0,0],"alphaMode":"OPAQUE","doubleSided":false},{"name":"Material.004","pbrMetallicRoughness":{"baseColorFactor":[0.098971,0.034325,0.014514,1],"metallicFactor":0,"roughnessFactor":0.903921569},"emissiveFactor":[0,0,0],"alphaMode":"OPAQUE","doubleSided":false},{"name":"Snow","pbrMetallicRoughness":{"baseColorFactor":[0.64,0.64,0.64,1],"metallicFactor":0,"roughnessFactor":0.903921569},"emissiveFactor":[0,0,0],"alphaMode":"OPAQUE","doubleSided":false},{"name":"Material.002","pbrMetallicRoughness":{"baseColorFactor":[0.64,0.64,0.64,1],"metallicFactor":0,"roughnessFactor":0.903921569},"emissiveFactor":[0,0,0],"alphaMode":"OPAQUE","doubleSided":false},{"name":"Material.003","pbrMetallicRoughness":{"baseColorFactor":[0.267428,0.085355,0.037845,1],"metallicFactor":0,"roughnessFactor":0.903921569},"emissiveFactor":[0,0,0],"alphaMode":"OPAQUE","doubleSided":false}],"meshes":[{"name":"Cone.012_Cone.015-Mesh","primitives":[{"attributes":{"POSITION":0,"NORMAL":1},"indices":2,"material":0,"mode":4}]},{"name":"Icosphere.001-Mesh","primitives":[{"attributes":{"POSITION":3,"NORMAL":4},"indices":5,"material":1,"mode":4},{"attributes":{"POSITION":3,"NORMAL":4},"indices":6,"material":2,"mode":4}]},{"name":"Plane.001_Plane.002-Mesh","primitives":[{"attributes":{"POSITION":7,"NORMAL":8},"indices":9,"material":3,"mode":4},{"attributes":{"POSITION":7,"NORMAL":8},"indices":10,"material":4,"mode":4}]},{"name":"Cone.005_Cone.008-Mesh","primitives":[{"attributes":{"POSITION":11,"NORMAL":12},"indices":13,"material":5,"mode":4},{"attributes":{"POSITION":11,"NORMAL":12},"indices":14,"material":6,"mode":4},{"attributes":{"POSITION":11,"NORMAL":12},"indices":15,"material":7,"mode":4}]},{"name":"Cone.004_Cone.007-Mesh","primitives":[{"attributes":{"POSITION":16,"NORMAL":17},"indices":18,"material":7,"mode":4},{"attributes":{"POSITION":16,"NORMAL":17},"indices":19,"material":5,"mode":4},{"attributes":{"POSITION":16,"NORMAL":17},"indices":20,"material":6,"mode":4}]},{"name":"Cone.002_Cone.006-Mesh","primitives":[{"attributes":{"POSITION":21,"NORMAL":22},"indices":23,"material":7,"mode":4},{"attributes":{"POSITION":21,"NORMAL":22},"indices":24,"material":5,"mode":4},{"attributes":{"POSITION":21,"NORMAL":22},"indices":25,"material":6,"mode":4}]},{"name":"Cone.001_Cone.005-Mesh","primitives":[{"attributes":{"POSITION":26,"NORMAL":27},"indices":28,"material":7,"mode":4},{"attributes":{"POSITION":26,"NORMAL":27},"indices":29,"material":5,"mode":4},{"attributes":{"POSITION":26,"NORMAL":27},"indices":30,"material":6,"mode":4}]},{"name":"Cone.003-Mesh","primitives":[{"attributes":{"POSITION":31,"NORMAL":32},"indices":33,"material":7,"mode":4},{"attributes":{"POSITION":31,"NORMAL":32},"indices":34,"material":5,"mode":4},{"attributes":{"POSITION":31,"NORMAL":32},"indices":35,"material":6,"mode":4}]},{"name":"Icosphere-Mesh","primitives":[{"attributes":{"POSITION":36,"NORMAL":37},"indices":38,"material":1,"mode":4},{"attributes":{"POSITION":36,"NORMAL":37},"indices":39,"material":2,"mode":4}]},{"name":"Cone-Mesh","primitives":[{"attributes":{"POSITION":40,"NORMAL":41},"indices":42,"material":8,"mode":4},{"attributes":{"POSITION":40,"NORMAL":41},"indices":43,"material":9,"mode":4}]}],"nodes":[{"name":"Cone.012_Cone.015","mesh":0},{"name":"Icosphere.001","mesh":1},{"name":"Plane.001_Plane.002","mesh":2},{"name":"Cone.005_Cone.008","mesh":3},{"name":"Cone.004_Cone.007","mesh":4},{"name":"Cone.002_Cone.006","mesh":5},{"name":"Cone.001_Cone.005","mesh":6},{"name":"Cone.003","mesh":7},{"name":"Icosphere","mesh":8},{"name":"Cone","mesh":9}],"scene":0,"scenes":[{"nodes":[0,1,2,3,4,5,6,7,8,9]}]}
