{
  "accessors": [
    {
      "name": "Mesh1 skpJKKh6Q1 Model_1_positions",
      "componentType": 5126,
      "count": 200,
      "min": [
        -200.343994140625,
        114.4729995727539,
        -206.4459991455078
      ],
      "max": [
        13.048299789428711,
        132.67999267578125,
        278.1730041503906
      ],
      "type": "VEC3",
      "bufferView": 0,
      "byteOffset": 0
    },
    {
      "name": "Mesh1 skpJKKh6Q1 Model_1_normals",
      "componentType": 5126,
      "count": 200,
      "min": [
        -0.9354959726333618,
        -0.9999570250511169,
        -0.9999390244483948
      ],
      "max": [
        0.9354959726333618,
        0.9999570250511169,
        0.9999390244483948
      ],
      "type": "VEC3",
      "bufferView": 0,
      "byteOffset": 12720
    },
    {
      "name": "Mesh1 skpJKKh6Q1 Model_1_texcoords",
      "componentType": 5126,
      "count": 200,
      "min": [
        -253.56300354003906,
        -244.63800048828125
      ],
      "max": [
        253.56300354003906,
        263.25
      ],
      "type": "VEC2",
      "bufferView": 1,
      "byteOffset": 0
    },
    {
      "name": "Mesh1 skpJKKh6Q1 Model_1_0_indices",
      "componentType": 5123,
      "count": 156,
      "min": [
        0
      ],
      "max": [
        195
      ],
      "type": "SCALAR",
      "bufferView": 2,
      "byteOffset": 0
    },
    {
      "name": "Mesh1 skpJKKh6Q1 Model_1_1_indices",
      "componentType": 5123,
      "count": 156,
      "min": [
        4
      ],
      "max": [
        199
      ],
      "type": "SCALAR",
      "bufferView": 2,
      "byteOffset": 312
    },
    {
      "name": "Mesh2 skpJKKh6Q1 Model_1_positions",
      "componentType": 5126,
      "count": 200,
      "min": [
        -107.58300018310547,
        113.21099853515625,
        -209.6009979248047
      ],
      "max": [
        107.07099914550781,
        149.8249969482422,
        274.4460144042969
      ],
      "type": "VEC3",
      "bufferView": 0,
      "byteOffset": 2400
    },
    {
      "name": "Mesh2 skpJKKh6Q1 Model_1_normals",
      "componentType": 5126,
      "count": 200,
      "min": [
        -0.934503972530365,
        -0.9987099766731262,
        -0.9987069964408875
      ],
      "max": [
        0.934503972530365,
        0.9987099766731262,
        0.9987069964408875
      ],
      "type": "VEC3",
      "bufferView": 0,
      "byteOffset": 15120
    },
    {
      "name": "Mesh2 skpJKKh6Q1 Model_1_texcoords",
      "componentType": 5126,
      "count": 200,
      "min": [
        -283.1210021972656,
        -232.7689971923828
      ],
      "max": [
        283.1210021972656,
        260.39898681640625
      ],
      "type": "VEC2",
      "bufferView": 1,
      "byteOffset": 1600
    },
    {
      "name": "Mesh2 skpJKKh6Q1 Model_1_0_indices",
      "componentType": 5123,
      "count": 156,
      "min": [
        4
      ],
      "max": [
        199
      ],
      "type": "SCALAR",
      "bufferView": 2,
      "byteOffset": 624
    },
    {
      "name": "Mesh2 skpJKKh6Q1 Model_1_1_indices",
      "componentType": 5123,
      "count": 156,
      "min": [
        0
      ],
      "max": [
        194
      ],
      "type": "SCALAR",
      "bufferView": 2,
      "byteOffset": 936
    },
    {
      "name": "Mesh3 skpJKKh6Q1 Model_1_positions",
      "componentType": 5126,
      "count": 596,
      "min": [
        -297.3710021972656,
        -4.516510009765625,
        -151.6649932861328
      ],
      "max": [
        457.6409912109375,
        116.42400360107422,
        245.73699951171875
      ],
      "type": "VEC3",
      "bufferView": 0,
      "byteOffset": 4800
    },
    {
      "name": "Mesh3 skpJKKh6Q1 Model_1_normals",
      "componentType": 5126,
      "count": 596,
      "min": [
        -1,
        -1,
        -1
      ],
      "max": [
        1,
        1,
        1
      ],
      "type": "VEC3",
      "bufferView": 0,
      "byteOffset": 17520
    },
    {
      "name": "Mesh3 skpJKKh6Q1 Model_1_texcoords",
      "componentType": 5126,
      "count": 596,
      "min": [
        -419.7869873046875,
        -541.2239990234375
      ],
      "max": [
        419.7909851074219,
        539.7429809570312
      ],
      "type": "VEC2",
      "bufferView": 1,
      "byteOffset": 3200
    },
    {
      "name": "Mesh3 skpJKKh6Q1 Model_1_0_indices",
      "componentType": 5123,
      "count": 420,
      "min": [
        4
      ],
      "max": [
        595
      ],
      "type": "SCALAR",
      "bufferView": 2,
      "byteOffset": 1248
    },
    {
      "name": "Mesh3 skpJKKh6Q1 Model_1_1_indices",
      "componentType": 5123,
      "count": 420,
      "min": [
        0
      ],
      "max": [
        590
      ],
      "type": "SCALAR",
      "bufferView": 2,
      "byteOffset": 2088
    },
    {
      "name": "Mesh4 skpJKKh6Q1 Model_1_positions",
      "componentType": 5126,
      "count": 32,
      "min": [
        -131.39999389648438,
        62.39970016479492,
        -117.26100158691406
      ],
      "max": [
        -60.76359939575195,
        80.02290344238281,
        211.33299255371094
      ],
      "type": "VEC3",
      "bufferView": 0,
      "byteOffset": 11952
    },
    {
      "name": "Mesh4 skpJKKh6Q1 Model_1_normals",
      "componentType": 5126,
      "count": 32,
      "min": [
        -1,
        -1,
        -1.6292099758175027e-7
      ],
      "max": [
        1,
        1,
        1.6292099758175027e-7
      ],
      "type": "VEC3",
      "bufferView": 0,
      "byteOffset": 24672
    },
    {
      "name": "Mesh4 skpJKKh6Q1 Model_1_texcoords",
      "componentType": 5126,
      "count": 32,
      "min": [
        -164.2969970703125,
        -163.2969970703125
      ],
      "max": [
        164.2969970703125,
        165.2969970703125
      ],
      "type": "VEC2",
      "bufferView": 1,
      "byteOffset": 7968
    },
    {
      "name": "Mesh4 skpJKKh6Q1 Model_1_0_indices",
      "componentType": 5123,
      "count": 12,
      "min": [
        4
      ],
      "max": [
        30
      ],
      "type": "SCALAR",
      "bufferView": 2,
      "byteOffset": 2928
    },
    {
      "name": "Mesh4 skpJKKh6Q1 Model_1_1_indices",
      "componentType": 5123,
      "count": 12,
      "min": [
        0
      ],
      "max": [
        26
      ],
      "type": "SCALAR",
      "bufferView": 2,
      "byteOffset": 2952
    },
    {
      "name": "Mesh4 skpJKKh6Q1 Model_1_2_indices",
      "componentType": 5123,
      "count": 24,
      "min": [
        8
      ],
      "max": [
        31
      ],
      "type": "SCALAR",
      "bufferView": 2,
      "byteOffset": 2976
    },
    {
      "name": "Mesh5 skpJKKh6Q1 Model_1_positions",
      "componentType": 5126,
      "count": 32,
      "min": [
        51.437801361083984,
        62.39970016479492,
        -117.26100158691406
      ],
      "max": [
        122.0739974975586,
        80.02290344238281,
        211.33299255371094
      ],
      "type": "VEC3",
      "bufferView": 0,
      "byteOffset": 12336
    },
    {
      "name": "Mesh5 skpJKKh6Q1 Model_1_normals",
      "componentType": 5126,
      "count": 32,
      "min": [
        -1,
        -1,
        -1.6292099758175027e-7
      ],
      "max": [
        1,
        1,
        1.6292099758175027e-7
      ],
      "type": "VEC3",
      "bufferView": 0,
      "byteOffset": 25056
    },
    {
      "name": "Mesh5 skpJKKh6Q1 Model_1_texcoords",
      "componentType": 5126,
      "count": 32,
      "min": [
        -206.13800048828125,
        -163.2969970703125
      ],
      "max": [
        206.13800048828125,
        165.2969970703125
      ],
      "type": "VEC2",
      "bufferView": 1,
      "byteOffset": 8224
    },
    {
      "name": "Mesh5 skpJKKh6Q1 Model_1_0_indices",
      "componentType": 5123,
      "count": 24,
      "min": [
        8
      ],
      "max": [
        31
      ],
      "type": "SCALAR",
      "bufferView": 2,
      "byteOffset": 3024
    },
    {
      "name": "Mesh5 skpJKKh6Q1 Model_1_1_indices",
      "componentType": 5123,
      "count": 12,
      "min": [
        0
      ],
      "max": [
        26
      ],
      "type": "SCALAR",
      "bufferView": 2,
      "byteOffset": 3072
    },
    {
      "name": "Mesh5 skpJKKh6Q1 Model_1_2_indices",
      "componentType": 5123,
      "count": 12,
      "min": [
        4
      ],
      "max": [
        30
      ],
      "type": "SCALAR",
      "bufferView": 2,
      "byteOffset": 3096
    }
  ],
  "asset": {
    "generator": "obj2gltf",
    "version": "2.0"
  },
  "buffers": [
    {
      "name": "Rowboat",
      "byteLength": 37040,
      "uri": "data:application/octet-stream;base64,"
    }
  ],
  "bufferViews": [
    {
      "name": "bufferView_0",
      "buffer": 0,
      "byteLength": 25440,
      "byteOffset": 0,
      "byteStride": 12,
      "target": 34962
    },
    {
      "name": "bufferView_1",
      "buffer": 0,
      "byteLength": 8480,
      "byteOffset": 25440,
      "byteStride": 8,
      "target": 34962
    },
    {
      "name": "bufferView_2",
      "buffer": 0,
      "byteLength": 3120,
      "byteOffset": 33920,
      "target": 34963
    }
  ],
  "materials": [
    {
      "name": "_",
      "pbrMetallicRoughness": {
        "baseColorFactor": [
          0.4,
          0.2,
          0,
          1
        ],
        "metallicFactor": 0,
        "roughnessFactor": 1
      },
      "emissiveFactor": [
        0,
        0,
        0
      ],
      "alphaMode": "OPAQUE",
      "doubleSided": false
    },
    {
      "name": "BackColor",
      "pbrMetallicRoughness": {
        "baseColorFactor": [
          0.643137,
          0.698039,
          0.733333,
          1
        ],
        "metallicFactor": 0,
        "roughnessFactor": 1
      },
      "emissiveFactor": [
        0,
        0,
        0
      ],
      "alphaMode": "OPAQUE",
      "doubleSided": false
    },
    {
      "name": "_2",
      "pbrMetallicRoughness": {
        "baseColorFactor": [
          0.6,
          0.298039,
          0,
          1
        ],
        "metallicFactor": 0,
        "roughnessFactor": 1
      },
      "emissiveFactor": [
        0,
        0,
        0
      ],
      "alphaMode": "OPAQUE",
      "doubleSided": false
    },
    {
      "name": "_auto_1",
      "pbrMetallicRoughness": {
        "baseColorFactor": [
          0.47451,
          0.329412,
          0.282353,
          1
        ],
        "metallicFactor": 0,
        "roughnessFactor": 1
      },
      "emissiveFactor": [
        0,
        0,
        0
      ],
      "alphaMode": "OPAQUE",
      "doubleSided": false
    }
  ],
  "meshes": [
    {
      "name": "Mesh1 skpJKKh6Q1 Model_1",
      "primitives": [
        {
          "attributes": {
            "POSITION": 0,
            "NORMAL": 1,
            "TEXCOORD_0": 2
          },
          "indices": 3,
          "material": 0,
          "mode": 4
        },
        {
          "attributes": {
            "POSITION": 0,
            "NORMAL": 1,
            "TEXCOORD_0": 2
          },
          "indices": 4,
          "material": 1,
          "mode": 4
        }
      ]
    },
    {
      "name": "Mesh2 skpJKKh6Q1 Model_1",
      "primitives": [
        {
          "attributes": {
            "POSITION": 5,
            "NORMAL": 6,
            "TEXCOORD_0": 7
          },
          "indices": 8,
          "material": 1,
          "mode": 4
        },
        {
          "attributes": {
            "POSITION": 5,
            "NORMAL": 6,
            "TEXCOORD_0": 7
          },
          "indices": 9,
          "material": 0,
          "mode": 4
        }
      ]
    },
    {
      "name": "Mesh3 skpJKKh6Q1 Model_1",
      "primitives": [
        {
          "attributes": {
            "POSITION": 10,
            "NORMAL": 11,
            "TEXCOORD_0": 12
          },
          "indices": 13,
          "material": 1,
          "mode": 4
        },
        {
          "attributes": {
            "POSITION": 10,
            "NORMAL": 11,
            "TEXCOORD_0": 12
          },
          "indices": 14,
          "material": 2,
          "mode": 4
        }
      ]
    },
    {
      "name": "Mesh4 skpJKKh6Q1 Model_1",
      "primitives": [
        {
          "attributes": {
            "POSITION": 15,
            "NORMAL": 16,
            "TEXCOORD_0": 17
          },
          "indices": 18,
          "material": 1,
          "mode": 4
        },
        {
          "attributes": {
            "POSITION": 15,
            "NORMAL": 16,
            "TEXCOORD_0": 17
          },
          "indices": 19,
          "material": 0,
          "mode": 4
        },
        {
          "attributes": {
            "POSITION": 15,
            "NORMAL": 16,
            "TEXCOORD_0": 17
          },
          "indices": 20,
          "material": 3,
          "mode": 4
        }
      ]
    },
    {
      "name": "Mesh5 skpJKKh6Q1 Model_1",
      "primitives": [
        {
          "attributes": {
            "POSITION": 21,
            "NORMAL": 22,
            "TEXCOORD_0": 23
          },
          "indices": 24,
          "material": 3,
          "mode": 4
        },
        {
          "attributes": {
            "POSITION": 21,
            "NORMAL": 22,
            "TEXCOORD_0": 23
          },
          "indices": 25,
          "material": 0,
          "mode": 4
        },
        {
          "attributes": {
            "POSITION": 21,
            "NORMAL": 22,
            "TEXCOORD_0": 23
          },
          "indices": 26,
          "material": 1,
          "mode": 4
        }
      ]
    }
  ],
  "nodes": [
    {
      "name": "Mesh1 skpJKKh6Q1 Model",
      "mesh": 0
    },
    {
      "name": "Mesh2 skpJKKh6Q1 Model",
      "mesh": 1
    },
    {
      "name": "Mesh3 skpJKKh6Q1 Model",
      "mesh": 2
    },
    {
      "name": "Mesh4 skpJKKh6Q1 Model",
      "mesh": 3
    },
    {
      "name": "Mesh5 skpJKKh6Q1 Model",
      "mesh": 4
    }
  ],
  "scene": 0,
  "scenes": [
    {
      "nodes": [
        0,
        1,
        2,
        3,
        4
      ]
    }
  ]
}
